<svg width="1157" height="546" viewBox="0 0 1157 546" fill="none" xmlns="http://www.w3.org/2000/svg">
<path d="M929.158 420.255C1257.7 420.255 1013.12 336.167 1113.5 116.755C1222.5 -121.5 670.558 116.755 543.157 116.755C442.5 116.755 348.345 -16.7139 133.912 24.0783C15.3296 84.3285 177.978 162.66 93.5 269.5C59.4999 312.5 -48.1327 480.005 133.912 445.755C392.5 445.755 497.578 546.472 621.5 545.5C777.974 544.273 746.5 420.255 929.158 420.255Z" fill="#F6BA9F"/>
<path d="M650.48 350.186L735.393 248.869L650.48 147.552V169.617H347.94V235.031C347.94 287.138 390.181 329.378 442.288 329.378H650.48V350.186Z" fill="#FADBCE"/>
<rect x="365.293" y="320.021" width="48.2772" height="22.8682" fill="#717171"/>
<path d="M338.542 263.258C339.685 258.628 344.998 250.428 357.106 254.666C369.214 258.905 373.738 251.41 374.487 247.133C376.398 242.981 382.574 236.508 391.99 243.836C394.731 244.708 401.072 246.043 404.51 244.399C407.2 243.113 411.206 246.023 413.079 250.136C416.141 247.789 423.621 244.727 429.051 251.256C435.839 259.417 434.03 270.068 441.193 271.503C448.356 272.937 458.364 281.193 456.824 288.885C454.454 300.719 451.837 302.463 468.965 309.131C486.094 315.8 473.825 328.46 476.249 330.996C484.858 340.011 473.377 359.898 458.367 353.977C451.078 356.405 457.068 368.552 455.621 375.778C454.489 381.433 437.683 368.299 430.767 376.956C413.588 374.555 348.673 364.729 329.989 354.51C308.445 350.55 323.549 346.048 308.751 342.483C300.279 343.27 273.87 335.499 276.676 321.485C278.298 313.388 294.568 313.341 291.878 308.657C288.515 302.801 277.179 302.798 279.734 294.888C282.29 286.978 288.625 286.074 292.132 286.357C297.551 286.794 305.872 290.534 310.756 285.551C316.862 279.324 310.012 273.093 314.124 268.734C318.236 264.375 329.88 272.546 338.542 263.258Z" fill="#333333"/>
<rect x="365.552" y="319.314" width="44.0287" height="21.3854" fill="#8395A7"/>
<path d="M414.523 301.599C446.285 301.599 419.288 313.986 390.067 329.866C308.123 288.577 371.328 301.599 378.633 296.517C387.237 290.532 384.958 270.711 391.655 273.331C398.96 276.19 387.844 300.646 414.523 301.599Z" fill="url(#paint0_linear)"/>
<path d="M357.671 295.247C348.269 294.739 343.378 300.752 339.249 303.822L364.658 366.075H413.253C423.205 345.324 441.648 303.124 435.803 300.329C429.959 297.534 413.253 295.776 405.63 295.247L396.419 358.452L384.033 360.675L373.261 295.415C372.733 295.559 364.611 295.622 357.671 295.247Z" fill="white"/>
<g filter="url(#filter0_d)">
<path d="M362.435 312.398L372.916 295.564L379.904 335.583H372.916L365.929 327.643L370.693 318.75L362.435 312.398Z" fill="white"/>
</g>
<g filter="url(#filter1_d)">
<path d="M415.794 312.827L405.313 295.993L398.325 336.013H405.313L412.3 328.072L407.536 319.179L415.794 312.827Z" fill="white"/>
</g>
<path d="M279.856 335.901H507.267L529.182 429.915H263.657L279.856 335.901Z" fill="#A9A9A9"/>
<path d="M362.752 348.927L420.876 343.528L447.873 405.462L377.998 412.768L362.752 348.927Z" fill="#EFEFEF"/>
<path d="M369.105 339.671L372.749 338.553L387.435 386.423L387.776 393.326L383.791 387.541L369.105 339.671Z" fill="#8B8B8B"/>
<path d="M381.174 368.727L359.259 367.456L361.066 376.073C362.435 380.161 366.564 387.008 370.058 384.29C370.058 384.29 374.032 386.104 375.457 393.115L383.08 392.865L388.611 387.008C388.141 377.2 387.209 373.173 381.174 368.727Z" fill="#EDBB81"/>
<path d="M310.346 359.516L319.239 342.365L362.151 367.774L362.151 377.577L310.346 359.516Z" fill="#EDBB81"/>
<path d="M356.718 377.937C355.644 380.138 355.447 382.066 356.718 385.878C347.555 385.374 344.823 380.152 328.45 372.163C305.181 360.811 299.547 347.446 294.445 331.043C298.069 323.616 310.717 327.443 334.485 342.047C349.73 349.669 361.961 358.724 366.564 363.962C357.988 371.585 357.978 375.354 356.718 377.937Z" fill="white"/>
<path d="M370.375 300.122C382.127 306.474 359.874 321.754 339.339 333.471C328.893 339.432 317.313 337.713 294.445 331.043C303.974 309.128 322.098 315.685 331.944 308.38C347.112 297.126 349.73 291.229 370.375 300.122Z" fill="white"/>
<path d="M414.524 353.283C413.253 341.532 413.253 342.047 411.348 331.248C418.335 331.248 425.323 329.145 443.427 332.956C460.805 332.956 488.664 330.415 488.664 346.931C473.918 353.283 472.329 356.022 443.427 353.283C428.792 351.896 427.864 356.022 414.524 353.283Z" fill="white"/>
<path d="M409.85 300.877C433.036 289.99 439.388 305.958 458.445 311.04C477.502 316.122 489.258 340.036 488.664 346.931C476.776 346.931 463.663 339.032 448.826 334.742C422.464 327.119 409.257 307.772 409.85 300.877Z" fill="white"/>
<rect x="263.657" y="429.915" width="265.525" height="10.1636" fill="#848484"/>
<path d="M422.514 279.281C414.524 295.676 405.208 304.132 392.387 300.906C379.566 297.679 376.085 286.783 376.085 267.597C379.903 252.427 393.391 242.746 406.212 245.972C419.033 249.199 426.331 264.112 422.514 279.281Z" fill="#EDBB81"/>
<path d="M395.149 285.749C395.149 290.594 396.787 293.577 396.383 298.479C391.635 301.393 390.353 301.026 387.899 296.285C389.572 292.62 392.291 290.594 395.149 285.749Z" fill="url(#paint1_linear)"/>
<path d="M410.173 292.754L410.173 292.754C404.829 294.964 401.231 293.552 399.995 290.675C401.704 292.312 405.773 292.524 410.173 292.754Z" fill="#646464"/>
<path d="M380.55 281.383L380.55 281.383C382.829 286.698 386.39 288.202 389.284 287.007C386.918 286.985 383.859 284.294 380.55 281.383Z" fill="#646464"/>
<path d="M410.559 45.0786H279.375C273.852 45.0786 269.375 49.5558 269.375 55.0786V198.332C269.375 203.855 273.852 208.332 279.375 208.332H412.677C417.03 208.332 420.559 204.803 420.559 200.451C420.559 194.085 427.729 190.452 432.65 194.491C512.951 260.389 470.428 344.368 437.392 379.526C490.696 333.866 561.735 218.181 424.817 117.311C422.213 115.393 420.559 112.306 420.559 109.072V55.0786C420.559 49.5558 416.081 45.0786 410.559 45.0786Z" fill="#F5F5F5" stroke="#C4C4C4" stroke-width="5"/>
<path d="M297.356 123.788C297.979 104.486 298.611 84.878 297.789 70.0688C313.854 69.3551 327.251 69.8697 339.991 70.3591C340.777 70.3893 341.561 70.4194 342.343 70.4491C355.755 70.9589 368.574 71.3539 383.151 70.1363C383.14 85.5391 382.637 98.0745 382.161 109.946C381.275 132.027 380.481 151.811 383.112 183.477C367.151 184.809 355.127 184.101 342.78 183.373C342.452 183.353 342.124 183.334 341.796 183.315C329.076 182.567 315.904 181.856 297.691 183.394C296.028 171.017 296.498 150.903 297.165 129.756C297.227 127.774 297.292 125.782 297.356 123.788Z" fill="#C4C4C4" stroke="#C4C4C4"/>
<path d="M309.489 119.602C310.112 100.3 310.745 80.6919 309.922 65.8828C325.988 65.1691 339.384 65.6837 352.124 66.173C352.91 66.2032 353.694 66.2333 354.476 66.2631C367.889 66.7729 380.707 67.1678 395.285 65.9503C395.273 81.3531 394.77 93.8885 394.294 105.76C393.408 127.84 392.615 147.625 395.245 179.291C379.284 180.623 367.261 179.915 354.913 179.187C354.585 179.167 354.257 179.148 353.929 179.129C341.21 178.38 328.038 177.67 309.825 179.208C308.162 166.831 308.631 146.717 309.298 125.57C309.361 123.588 309.425 121.596 309.489 119.602Z" fill="white" stroke="#C4C4C4"/>
<path fill-rule="evenodd" clip-rule="evenodd" d="M338.751 265.336C339.833 260.691 345.385 252.325 358.214 252.342C366.935 252.354 367.692 247.485 373.832 240.553C377.516 236.394 386.475 231.672 395.583 236.535C401.166 239.515 403.351 239.923 407.76 238.807C411.313 237.907 418.865 243.41 417.789 247.908C420.819 245.521 427.106 244.253 432.622 250.711C435.656 254.263 437.032 258.32 438.233 261.863C439.762 266.37 441.312 273.513 445.332 274.263C452.513 275.603 446.412 302.577 468.863 311.137C484.204 316.987 444.597 316.046 431.905 316.599C424.357 316.927 417.032 310.888 415.818 304.9C415.053 301.128 417.379 291.162 417.241 287.989C417.103 284.816 413.844 281.025 410.837 278.094C409.275 276.573 407.895 276.247 409.4 266.992C404.295 273.89 405.247 273.849 395.728 274.263C388.195 274.591 386.939 269.559 379.805 273.634C377.307 275.061 374.663 284.654 374.068 287.922C373.076 293.374 358.612 292.011 352.271 295.676L338.751 265.336Z" fill="#333333"/>
<path d="M341.655 135.074V134.773L341.388 134.632C333.99 130.721 328.95 122.949 328.95 114.001C328.95 101.121 339.391 90.6797 352.271 90.6797C365.151 90.6797 375.592 101.121 375.592 114.001C375.592 123.198 370.268 131.152 362.532 134.949L362.252 135.086V135.398V139.863H341.655V135.074Z" fill="#FFF4DC" stroke="#F7D794"/>
<path d="M341.013 143.002L341.639 142.586L341.013 142.17C340.633 141.917 340.384 141.486 340.384 140.998C340.384 140.222 341.014 139.592 341.79 139.592H362.117C362.894 139.592 363.523 140.222 363.523 140.998C363.523 141.486 363.274 141.917 362.894 142.17L362.268 142.586L362.894 143.002C363.274 143.255 363.523 143.686 363.523 144.174C363.523 144.663 363.274 145.093 362.894 145.346L362.268 145.762L362.894 146.179C363.274 146.431 363.523 146.862 363.523 147.35C363.523 147.839 363.274 148.269 362.894 148.522L362.268 148.938L362.894 149.355C363.274 149.607 363.523 150.038 363.523 150.526C363.523 151.015 363.274 151.445 362.894 151.698L362.268 152.114L362.894 152.531C363.274 152.783 363.523 153.214 363.523 153.703C363.523 154.479 362.894 155.108 362.117 155.108H341.79C341.014 155.108 340.384 154.479 340.384 153.703C340.384 153.214 340.633 152.783 341.013 152.531L341.639 152.114L341.013 151.698C340.633 151.445 340.384 151.015 340.384 150.526C340.384 150.038 340.633 149.607 341.013 149.355L341.639 148.938L341.013 148.522C340.633 148.269 340.384 147.839 340.384 147.35C340.384 146.862 340.633 146.431 341.013 146.179L341.639 145.762L341.013 145.346C340.633 145.093 340.384 144.663 340.384 144.174C340.384 143.686 340.633 143.255 341.013 143.002Z" fill="#C4C4C4" stroke="#8B8B8B"/>
<rect x="737.496" y="95.856" width="244.644" height="287.84" rx="7.5" fill="white" stroke="#8B8B8B" stroke-width="5"/>
<g filter="url(#filter2_f)">
<path d="M756.031 126.753H749.272L748.027 130.199H745.893L751.495 114.791H753.83L759.41 130.199H757.276L756.031 126.753ZM755.453 125.108L752.651 117.282L749.85 125.108H755.453Z" fill="#C4C4C4"/>
<path d="M771.39 114.703V116.348H767.166V130.199H765.142V116.348H760.896V114.703H771.39Z" fill="#C4C4C4"/>
<path d="M773.124 122.44C773.124 120.928 773.465 119.572 774.147 118.371C774.829 117.156 775.755 116.207 776.926 115.525C778.112 114.843 779.424 114.502 780.862 114.502C782.551 114.502 784.026 114.91 785.286 115.725C786.546 116.54 787.465 117.697 788.043 119.194H785.619C785.19 118.26 784.567 117.541 783.752 117.037C782.951 116.533 781.988 116.281 780.862 116.281C779.78 116.281 778.809 116.533 777.949 117.037C777.089 117.541 776.415 118.26 775.926 119.194C775.437 120.113 775.192 121.195 775.192 122.44C775.192 123.67 775.437 124.752 775.926 125.686C776.415 126.605 777.089 127.316 777.949 127.82C778.809 128.324 779.78 128.576 780.862 128.576C781.988 128.576 782.951 128.331 783.752 127.842C784.567 127.338 785.19 126.619 785.619 125.686H788.043C787.465 127.168 786.546 128.317 785.286 129.132C784.026 129.932 782.551 130.332 780.862 130.332C779.424 130.332 778.112 129.999 776.926 129.332C775.755 128.65 774.829 127.709 774.147 126.508C773.465 125.308 773.124 123.951 773.124 122.44Z" fill="#C4C4C4"/>
<path d="M802.793 119.194C802.364 118.289 801.741 117.593 800.926 117.104C800.111 116.6 799.162 116.348 798.08 116.348C796.998 116.348 796.02 116.6 795.145 117.104C794.286 117.593 793.604 118.304 793.1 119.238C792.611 120.157 792.366 121.224 792.366 122.44C792.366 123.655 792.611 124.722 793.1 125.641C793.604 126.56 794.286 127.272 795.145 127.776C796.02 128.265 796.998 128.509 798.08 128.509C799.592 128.509 800.837 128.057 801.815 127.153C802.793 126.249 803.364 125.026 803.527 123.485H797.346V121.839H805.684V123.396C805.565 124.67 805.165 125.841 804.483 126.908C803.801 127.961 802.905 128.798 801.793 129.421C800.681 130.028 799.444 130.332 798.08 130.332C796.642 130.332 795.331 129.999 794.145 129.332C792.959 128.65 792.018 127.709 791.321 126.508C790.639 125.308 790.299 123.951 790.299 122.44C790.299 120.928 790.639 119.572 791.321 118.371C792.018 117.156 792.959 116.214 794.145 115.547C795.331 114.866 796.642 114.525 798.08 114.525C799.725 114.525 801.178 114.932 802.438 115.747C803.712 116.563 804.639 117.711 805.217 119.194H802.793Z" fill="#C4C4C4"/>
<path d="M817.519 126.753H810.76L809.515 130.199H807.381L812.983 114.791H815.318L820.898 130.199H818.764L817.519 126.753ZM816.941 125.108L814.139 117.282L811.338 125.108H816.941Z" fill="#C4C4C4"/>
<path d="M832.878 114.703V116.348H828.654V130.199H826.63V116.348H822.384V114.703H832.878Z" fill="#C4C4C4"/>
<path d="M834.612 122.44C834.612 120.928 834.953 119.572 835.635 118.371C836.317 117.156 837.243 116.207 838.414 115.525C839.6 114.843 840.912 114.502 842.349 114.502C844.039 114.502 845.514 114.91 846.774 115.725C848.034 116.54 848.953 117.697 849.531 119.194H847.107C846.678 118.26 846.055 117.541 845.24 117.037C844.439 116.533 843.476 116.281 842.349 116.281C841.267 116.281 840.297 116.533 839.437 117.037C838.577 117.541 837.903 118.26 837.414 119.194C836.925 120.113 836.68 121.195 836.68 122.44C836.68 123.67 836.925 124.752 837.414 125.686C837.903 126.605 838.577 127.316 839.437 127.82C840.297 128.324 841.267 128.576 842.349 128.576C843.476 128.576 844.439 128.331 845.24 127.842C846.055 127.338 846.678 126.619 847.107 125.686H849.531C848.953 127.168 848.034 128.317 846.774 129.132C845.514 129.932 844.039 130.332 842.349 130.332C840.912 130.332 839.6 129.999 838.414 129.332C837.243 128.65 836.317 127.709 835.635 126.508C834.953 125.308 834.612 123.951 834.612 122.44Z" fill="#C4C4C4"/>
<path d="M864.281 119.194C863.852 118.289 863.229 117.593 862.414 117.104C861.599 116.6 860.65 116.348 859.568 116.348C858.486 116.348 857.508 116.6 856.633 117.104C855.774 117.593 855.092 118.304 854.588 119.238C854.099 120.157 853.854 121.224 853.854 122.44C853.854 123.655 854.099 124.722 854.588 125.641C855.092 126.56 855.774 127.272 856.633 127.776C857.508 128.265 858.486 128.509 859.568 128.509C861.08 128.509 862.325 128.057 863.303 127.153C864.281 126.249 864.852 125.026 865.015 123.485H858.834V121.839H867.172V123.396C867.053 124.67 866.653 125.841 865.971 126.908C865.289 127.961 864.393 128.798 863.281 129.421C862.169 130.028 860.932 130.332 859.568 130.332C858.13 130.332 856.819 129.999 855.633 129.332C854.447 128.65 853.506 127.709 852.809 126.508C852.127 125.308 851.787 123.951 851.787 122.44C851.787 120.928 852.127 119.572 852.809 118.371C853.506 117.156 854.447 116.214 855.633 115.547C856.819 114.866 858.13 114.525 859.568 114.525C861.213 114.525 862.666 114.932 863.926 115.747C865.2 116.563 866.127 117.711 866.705 119.194H864.281Z" fill="#C4C4C4"/>
<path d="M879.385 114.703V116.348H875.16V130.199H873.137V116.348H868.891V114.703H879.385Z" fill="#C4C4C4"/>
<path d="M891.035 126.753H884.276L883.031 130.199H880.897L886.5 114.791H888.834L894.415 130.199H892.28L891.035 126.753ZM890.457 125.108L887.656 117.282L884.854 125.108H890.457Z" fill="#C4C4C4"/>
<path d="M908.595 119.194C908.165 118.289 907.543 117.593 906.728 117.104C905.913 116.6 904.964 116.348 903.882 116.348C902.8 116.348 901.822 116.6 900.947 117.104C900.088 117.593 899.406 118.304 898.902 119.238C898.413 120.157 898.168 121.224 898.168 122.44C898.168 123.655 898.413 124.722 898.902 125.641C899.406 126.56 900.088 127.272 900.947 127.776C901.822 128.265 902.8 128.509 903.882 128.509C905.394 128.509 906.639 128.057 907.617 127.153C908.595 126.249 909.166 125.026 909.329 123.485H903.148V121.839H911.486V123.396C911.367 124.67 910.967 125.841 910.285 126.908C909.603 127.961 908.706 128.798 907.595 129.421C906.483 130.028 905.246 130.332 903.882 130.332C902.444 130.332 901.132 129.999 899.947 129.332C898.761 128.65 897.82 127.709 897.123 126.508C896.441 125.308 896.1 123.951 896.1 122.44C896.1 120.928 896.441 119.572 897.123 118.371C897.82 117.156 898.761 116.214 899.947 115.547C901.132 114.866 902.444 114.525 903.882 114.525C905.527 114.525 906.98 114.932 908.24 115.747C909.514 116.563 910.441 117.711 911.019 119.194H908.595Z" fill="#C4C4C4"/>
<path d="M925.9 119.194C925.47 118.289 924.847 117.593 924.032 117.104C923.217 116.6 922.268 116.348 921.186 116.348C920.104 116.348 919.126 116.6 918.252 117.104C917.392 117.593 916.71 118.304 916.206 119.238C915.717 120.157 915.472 121.224 915.472 122.44C915.472 123.655 915.717 124.722 916.206 125.641C916.71 126.56 917.392 127.272 918.252 127.776C919.126 128.265 920.104 128.509 921.186 128.509C922.698 128.509 923.943 128.057 924.921 127.153C925.9 126.249 926.47 125.026 926.633 123.485H920.453V121.839H928.79V123.396C928.671 124.67 928.271 125.841 927.589 126.908C926.908 127.961 926.011 128.798 924.899 129.421C923.788 130.028 922.55 130.332 921.186 130.332C919.749 130.332 918.437 129.999 917.251 129.332C916.065 128.65 915.124 127.709 914.427 126.508C913.746 125.308 913.405 123.951 913.405 122.44C913.405 120.928 913.746 119.572 914.427 118.371C915.124 117.156 916.065 116.214 917.251 115.547C918.437 114.866 919.749 114.525 921.186 114.525C922.832 114.525 924.284 114.932 925.544 115.747C926.819 116.563 927.745 117.711 928.323 119.194H925.9Z" fill="#C4C4C4"/>
<path d="M941.003 114.703V116.348H936.779V130.199H934.755V116.348H930.509V114.703H941.003Z" fill="#C4C4C4"/>
<path d="M952.653 126.753H945.895L944.649 130.199H942.515L948.118 114.791H950.452L956.033 130.199H953.898L952.653 126.753ZM952.075 125.108L949.274 117.282L946.473 125.108H952.075Z" fill="#C4C4C4"/>
<path d="M957.719 122.44C957.719 120.928 958.06 119.572 958.741 118.371C959.423 117.156 960.35 116.207 961.52 115.525C962.706 114.843 964.018 114.502 965.456 114.502C967.145 114.502 968.62 114.91 969.88 115.725C971.14 116.54 972.059 117.697 972.637 119.194H970.214C969.784 118.26 969.161 117.541 968.346 117.037C967.546 116.533 966.582 116.281 965.456 116.281C964.374 116.281 963.403 116.533 962.543 117.037C961.684 117.541 961.009 118.26 960.52 119.194C960.031 120.113 959.786 121.195 959.786 122.44C959.786 123.67 960.031 124.752 960.52 125.686C961.009 126.605 961.684 127.316 962.543 127.82C963.403 128.324 964.374 128.576 965.456 128.576C966.582 128.576 967.546 128.331 968.346 127.842C969.161 127.338 969.784 126.619 970.214 125.686H972.637C972.059 127.168 971.14 128.317 969.88 129.132C968.62 129.932 967.145 130.332 965.456 130.332C964.018 130.332 962.706 129.999 961.52 129.332C960.35 128.65 959.423 127.709 958.741 126.508C958.06 125.308 957.719 123.951 957.719 122.44Z" fill="#C4C4C4"/>
<path d="M756.409 148.37V150.015H752.185V163.866H750.161V150.015H745.915V148.37H756.409Z" fill="#C4C4C4"/>
<path d="M768.059 160.42H761.3L760.055 163.866H757.921L763.524 148.458H765.858L771.439 163.866H769.304L768.059 160.42ZM767.481 158.775L764.68 150.949L761.878 158.775H767.481Z" fill="#C4C4C4"/>
<path d="M773.124 156.107C773.124 154.595 773.465 153.239 774.147 152.038C774.829 150.823 775.755 149.874 776.926 149.192C778.112 148.51 779.424 148.169 780.862 148.169C782.551 148.169 784.026 148.577 785.286 149.392C786.546 150.207 787.465 151.364 788.043 152.861H785.619C785.19 151.927 784.567 151.208 783.752 150.704C782.951 150.2 781.988 149.948 780.862 149.948C779.78 149.948 778.809 150.2 777.949 150.704C777.089 151.208 776.415 151.927 775.926 152.861C775.437 153.78 775.192 154.862 775.192 156.107C775.192 157.337 775.437 158.419 775.926 159.353C776.415 160.272 777.089 160.983 777.949 161.487C778.809 161.991 779.78 162.243 780.862 162.243C781.988 162.243 782.951 161.998 783.752 161.509C784.567 161.005 785.19 160.286 785.619 159.353H788.043C787.465 160.835 786.546 161.984 785.286 162.799C784.026 163.599 782.551 163.999 780.862 163.999C779.424 163.999 778.112 163.666 776.926 162.999C775.755 162.317 774.829 161.376 774.147 160.175C773.465 158.975 773.124 157.618 773.124 156.107Z" fill="#C4C4C4"/>
<path d="M790.299 156.107C790.299 154.595 790.639 153.239 791.321 152.038C792.003 150.823 792.929 149.874 794.1 149.192C795.286 148.51 796.598 148.169 798.036 148.169C799.725 148.169 801.2 148.577 802.46 149.392C803.72 150.207 804.639 151.364 805.217 152.861H802.793C802.364 151.927 801.741 151.208 800.926 150.704C800.125 150.2 799.162 149.948 798.036 149.948C796.954 149.948 795.983 150.2 795.123 150.704C794.263 151.208 793.589 151.927 793.1 152.861C792.611 153.78 792.366 154.862 792.366 156.107C792.366 157.337 792.611 158.419 793.1 159.353C793.589 160.272 794.263 160.983 795.123 161.487C795.983 161.991 796.954 162.243 798.036 162.243C799.162 162.243 800.125 161.998 800.926 161.509C801.741 161.005 802.364 160.286 802.793 159.353H805.217C804.639 160.835 803.72 161.984 802.46 162.799C801.2 163.599 799.725 163.999 798.036 163.999C796.598 163.999 795.286 163.666 794.1 162.999C792.929 162.317 792.003 161.376 791.321 160.175C790.639 158.975 790.299 157.618 790.299 156.107Z" fill="#C4C4C4"/>
<path d="M817.766 148.37V150.015H813.542V163.866H811.519V150.015H807.273V148.37H817.766Z" fill="#C4C4C4"/>
<path d="M829.417 160.42H822.658L821.413 163.866H819.279L824.881 148.458H827.216L832.796 163.866H830.662L829.417 160.42ZM828.839 158.775L826.037 150.949L823.236 158.775H828.839Z" fill="#C4C4C4"/>
<path d="M846.977 152.861C846.547 151.956 845.925 151.26 845.11 150.771C844.294 150.267 843.346 150.015 842.264 150.015C841.182 150.015 840.203 150.267 839.329 150.771C838.469 151.26 837.787 151.971 837.284 152.905C836.794 153.824 836.55 154.891 836.55 156.107C836.55 157.322 836.794 158.389 837.284 159.308C837.787 160.227 838.469 160.939 839.329 161.443C840.203 161.932 841.182 162.176 842.264 162.176C843.776 162.176 845.021 161.724 845.999 160.82C846.977 159.916 847.548 158.693 847.711 157.152H841.53V155.506H849.867V157.063C849.749 158.337 849.349 159.508 848.667 160.575C847.985 161.628 847.088 162.465 845.977 163.088C844.865 163.695 843.627 163.999 842.264 163.999C840.826 163.999 839.514 163.666 838.328 162.999C837.143 162.317 836.202 161.376 835.505 160.175C834.823 158.975 834.482 157.618 834.482 156.107C834.482 154.595 834.823 153.239 835.505 152.038C836.202 150.823 837.143 149.881 838.328 149.214C839.514 148.533 840.826 148.192 842.264 148.192C843.909 148.192 845.361 148.599 846.621 149.415C847.896 150.23 848.822 151.378 849.4 152.861H846.977Z" fill="#C4C4C4"/>
<path d="M851.787 156.107C851.787 154.595 852.127 153.239 852.809 152.038C853.491 150.823 854.417 149.874 855.588 149.192C856.774 148.51 858.086 148.169 859.524 148.169C861.213 148.169 862.688 148.577 863.948 149.392C865.208 150.207 866.127 151.364 866.705 152.861H864.281C863.852 151.927 863.229 151.208 862.414 150.704C861.613 150.2 860.65 149.948 859.524 149.948C858.442 149.948 857.471 150.2 856.611 150.704C855.751 151.208 855.077 151.927 854.588 152.861C854.099 153.78 853.854 154.862 853.854 156.107C853.854 157.337 854.099 158.419 854.588 159.353C855.077 160.272 855.751 160.983 856.611 161.487C857.471 161.991 858.442 162.243 859.524 162.243C860.65 162.243 861.613 161.998 862.414 161.509C863.229 161.005 863.852 160.286 864.281 159.353H866.705C866.127 160.835 865.208 161.984 863.948 162.799C862.688 163.599 861.213 163.999 859.524 163.999C858.086 163.999 856.774 163.666 855.588 162.999C854.417 162.317 853.491 161.376 852.809 160.175C852.127 158.975 851.787 157.618 851.787 156.107Z" fill="#C4C4C4"/>
<path d="M878.876 160.42H872.118L870.873 163.866H868.738L874.341 148.458H876.675L882.256 163.866H880.122L878.876 160.42ZM878.298 158.775L875.497 150.949L872.696 158.775H878.298Z" fill="#C4C4C4"/>
<path d="M893.858 160.42H887.099L885.854 163.866H883.719L889.322 148.458H891.657L897.237 163.866H895.103L893.858 160.42ZM893.28 158.775L890.478 150.949L887.677 158.775H893.28Z" fill="#C4C4C4"/>
<path d="M911.418 152.861C910.988 151.956 910.365 151.26 909.55 150.771C908.735 150.267 907.786 150.015 906.704 150.015C905.622 150.015 904.644 150.267 903.77 150.771C902.91 151.26 902.228 151.971 901.724 152.905C901.235 153.824 900.991 154.891 900.991 156.107C900.991 157.322 901.235 158.389 901.724 159.308C902.228 160.227 902.91 160.939 903.77 161.443C904.644 161.932 905.622 162.176 906.704 162.176C908.216 162.176 909.461 161.724 910.44 160.82C911.418 159.916 911.988 158.693 912.152 157.152H905.971V155.506H914.308V157.063C914.19 158.337 913.789 159.508 913.108 160.575C912.426 161.628 911.529 162.465 910.417 163.088C909.306 163.695 908.068 163.999 906.704 163.999C905.267 163.999 903.955 163.666 902.769 162.999C901.583 162.317 900.642 161.376 899.946 160.175C899.264 158.975 898.923 157.618 898.923 156.107C898.923 154.595 899.264 153.239 899.946 152.038C900.642 150.823 901.583 149.881 902.769 149.214C903.955 148.533 905.267 148.192 906.704 148.192C908.35 148.192 909.802 148.599 911.062 149.415C912.337 150.23 913.263 151.378 913.841 152.861H911.418Z" fill="#C4C4C4"/>
<path d="M916.227 156.107C916.227 154.595 916.568 153.239 917.25 152.038C917.932 150.823 918.858 149.874 920.029 149.192C921.215 148.51 922.527 148.169 923.964 148.169C925.654 148.169 927.129 148.577 928.389 149.392C929.649 150.207 930.568 151.364 931.146 152.861H928.722C928.292 151.927 927.67 151.208 926.855 150.704C926.054 150.2 925.091 149.948 923.964 149.948C922.882 149.948 921.912 150.2 921.052 150.704C920.192 151.208 919.518 151.927 919.029 152.861C918.54 153.78 918.295 154.862 918.295 156.107C918.295 157.337 918.54 158.419 919.029 159.353C919.518 160.272 920.192 160.983 921.052 161.487C921.912 161.991 922.882 162.243 923.964 162.243C925.091 162.243 926.054 161.998 926.855 161.509C927.67 161.005 928.292 160.286 928.722 159.353H931.146C930.568 160.835 929.649 161.984 928.389 162.799C927.129 163.599 925.654 163.999 923.964 163.999C922.527 163.999 921.215 163.666 920.029 162.999C918.858 162.317 917.932 161.376 917.25 160.175C916.568 158.975 916.227 157.618 916.227 156.107Z" fill="#C4C4C4"/>
<path d="M943.317 160.42H936.558L935.313 163.866H933.179L938.782 148.458H941.116L946.697 163.866H944.562L943.317 160.42ZM942.739 158.775L939.938 150.949L937.137 158.775H942.739Z" fill="#C4C4C4"/>
<path d="M958.298 160.42H951.54L950.295 163.866H948.16L953.763 148.458H956.097L961.678 163.866H959.543L958.298 160.42ZM957.72 158.775L954.919 150.949L952.118 158.775H957.72Z" fill="#C4C4C4"/>
<path d="M973.28 160.42H966.521L965.276 163.866H963.141L968.744 148.458H971.079L976.659 163.866H974.525L973.28 160.42ZM972.702 158.775L969.9 150.949L967.099 158.775H972.702Z" fill="#C4C4C4"/>
<path d="M746.115 189.774C746.115 188.262 746.456 186.906 747.138 185.705C747.819 184.49 748.746 183.541 749.917 182.859C751.102 182.177 752.414 181.836 753.852 181.836C755.542 181.836 757.016 182.244 758.276 183.059C759.536 183.875 760.455 185.031 761.033 186.528H758.61C758.18 185.594 757.557 184.875 756.742 184.371C755.942 183.867 754.978 183.615 753.852 183.615C752.77 183.615 751.799 183.867 750.939 184.371C750.08 184.875 749.405 185.594 748.916 186.528C748.427 187.447 748.183 188.529 748.183 189.774C748.183 191.004 748.427 192.086 748.916 193.02C749.405 193.939 750.08 194.65 750.939 195.154C751.799 195.658 752.77 195.91 753.852 195.91C754.978 195.91 755.942 195.665 756.742 195.176C757.557 194.672 758.18 193.953 758.61 193.02H761.033C760.455 194.502 759.536 195.651 758.276 196.466C757.016 197.266 755.542 197.666 753.852 197.666C752.414 197.666 751.102 197.333 749.917 196.666C748.746 195.984 747.819 195.043 747.138 193.842C746.456 192.642 746.115 191.285 746.115 189.774Z" fill="#C4C4C4"/>
<path d="M775.784 186.528C775.354 185.623 774.732 184.927 773.916 184.438C773.101 183.934 772.153 183.682 771.071 183.682C769.989 183.682 769.01 183.934 768.136 184.438C767.276 184.927 766.594 185.638 766.09 186.572C765.601 187.491 765.357 188.558 765.357 189.774C765.357 190.989 765.601 192.056 766.09 192.975C766.594 193.894 767.276 194.606 768.136 195.11C769.01 195.599 769.989 195.843 771.071 195.843C772.582 195.843 773.827 195.391 774.806 194.487C775.784 193.583 776.355 192.36 776.518 190.819H770.337V189.173H778.674V190.73C778.556 192.004 778.155 193.175 777.474 194.242C776.792 195.295 775.895 196.132 774.783 196.755C773.672 197.362 772.434 197.666 771.071 197.666C769.633 197.666 768.321 197.333 767.135 196.666C765.95 195.984 765.008 195.043 764.312 193.842C763.63 192.642 763.289 191.285 763.289 189.774C763.289 188.262 763.63 186.906 764.312 185.705C765.008 184.49 765.95 183.548 767.135 182.881C768.321 182.2 769.633 181.859 771.071 181.859C772.716 181.859 774.168 182.266 775.428 183.082C776.703 183.897 777.629 185.045 778.207 186.528H775.784Z" fill="#C4C4C4"/>
<path d="M790.887 182.037V183.682H786.663V197.533H784.64V183.682H780.393V182.037H790.887Z" fill="#C4C4C4"/>
<path d="M802.538 194.087H795.779L794.534 197.533H792.399L798.002 182.126H800.337L805.917 197.533H803.783L802.538 194.087ZM801.96 192.442L799.158 184.616L796.357 192.442H801.96Z" fill="#C4C4C4"/>
<path d="M820.098 186.528C819.668 185.623 819.045 184.927 818.23 184.438C817.415 183.934 816.466 183.682 815.384 183.682C814.302 183.682 813.324 183.934 812.45 184.438C811.59 184.927 810.908 185.638 810.404 186.572C809.915 187.491 809.671 188.558 809.671 189.774C809.671 190.989 809.915 192.056 810.404 192.975C810.908 193.894 811.59 194.606 812.45 195.11C813.324 195.599 814.302 195.843 815.384 195.843C816.896 195.843 818.141 195.391 819.12 194.487C820.098 193.583 820.668 192.36 820.831 190.819H814.651V189.173H822.988V190.73C822.87 192.004 822.469 193.175 821.787 194.242C821.106 195.295 820.209 196.132 819.097 196.755C817.986 197.362 816.748 197.666 815.384 197.666C813.947 197.666 812.635 197.333 811.449 196.666C810.263 195.984 809.322 195.043 808.626 193.842C807.944 192.642 807.603 191.285 807.603 189.774C807.603 188.262 807.944 186.906 808.626 185.705C809.322 184.49 810.263 183.548 811.449 182.881C812.635 182.2 813.947 181.859 815.384 181.859C817.03 181.859 818.482 182.266 819.742 183.082C821.017 183.897 821.943 185.045 822.521 186.528H820.098Z" fill="#C4C4C4"/>
<path d="M837.402 186.528C836.972 185.623 836.35 184.927 835.535 184.438C834.719 183.934 833.771 183.682 832.689 183.682C831.607 183.682 830.629 183.934 829.754 184.438C828.894 184.927 828.213 185.638 827.709 186.572C827.219 187.491 826.975 188.558 826.975 189.774C826.975 190.989 827.219 192.056 827.709 192.975C828.213 193.894 828.894 194.606 829.754 195.11C830.629 195.599 831.607 195.843 832.689 195.843C834.201 195.843 835.446 195.391 836.424 194.487C837.402 193.583 837.973 192.36 838.136 190.819H831.955V189.173H840.292V190.73C840.174 192.004 839.774 193.175 839.092 194.242C838.41 195.295 837.513 196.132 836.402 196.755C835.29 197.362 834.052 197.666 832.689 197.666C831.251 197.666 829.939 197.333 828.754 196.666C827.568 195.984 826.627 195.043 825.93 193.842C825.248 192.642 824.907 191.285 824.907 189.774C824.907 188.262 825.248 186.906 825.93 185.705C826.627 184.49 827.568 183.548 828.754 182.881C829.939 182.2 831.251 181.859 832.689 181.859C834.334 181.859 835.787 182.266 837.046 183.082C838.321 183.897 839.247 185.045 839.826 186.528H837.402Z" fill="#C4C4C4"/>
<path d="M852.127 194.087H845.369L844.124 197.533H841.989L847.592 182.126H849.926L855.507 197.533H853.373L852.127 194.087ZM851.549 192.442L848.748 184.616L845.947 192.442H851.549Z" fill="#C4C4C4"/>
<path d="M867.487 182.037V183.682H863.262V197.533H861.239V183.682H856.993V182.037H867.487Z" fill="#C4C4C4"/>
<path d="M881.716 186.528C881.286 185.623 880.664 184.927 879.848 184.438C879.033 183.934 878.085 183.682 877.003 183.682C875.921 183.682 874.942 183.934 874.068 184.438C873.208 184.927 872.526 185.638 872.022 186.572C871.533 187.491 871.289 188.558 871.289 189.774C871.289 190.989 871.533 192.056 872.022 192.975C872.526 193.894 873.208 194.606 874.068 195.11C874.942 195.599 875.921 195.843 877.003 195.843C878.514 195.843 879.76 195.391 880.738 194.487C881.716 193.583 882.287 192.36 882.45 190.819H876.269V189.173H884.606V190.73C884.488 192.004 884.088 193.175 883.406 194.242C882.724 195.295 881.827 196.132 880.716 196.755C879.604 197.362 878.366 197.666 877.003 197.666C875.565 197.666 874.253 197.333 873.067 196.666C871.882 195.984 870.94 195.043 870.244 193.842C869.562 192.642 869.221 191.285 869.221 189.774C869.221 188.262 869.562 186.906 870.244 185.705C870.94 184.49 871.882 183.548 873.067 182.881C874.253 182.2 875.565 181.859 877.003 181.859C878.648 181.859 880.1 182.266 881.36 183.082C882.635 183.897 883.561 185.045 884.139 186.528H881.716Z" fill="#C4C4C4"/>
<path d="M886.525 189.774C886.525 188.262 886.866 186.906 887.548 185.705C888.23 184.49 889.156 183.541 890.327 182.859C891.513 182.177 892.825 181.836 894.263 181.836C895.952 181.836 897.427 182.244 898.687 183.059C899.947 183.875 900.866 185.031 901.444 186.528H899.02C898.591 185.594 897.968 184.875 897.153 184.371C896.352 183.867 895.389 183.615 894.263 183.615C893.181 183.615 892.21 183.867 891.35 184.371C890.49 184.875 889.816 185.594 889.327 186.528C888.838 187.447 888.593 188.529 888.593 189.774C888.593 191.004 888.838 192.086 889.327 193.02C889.816 193.939 890.49 194.65 891.35 195.154C892.21 195.658 893.181 195.91 894.263 195.91C895.389 195.91 896.352 195.665 897.153 195.176C897.968 194.672 898.591 193.953 899.02 193.02H901.444C900.866 194.502 899.947 195.651 898.687 196.466C897.427 197.266 895.952 197.666 894.263 197.666C892.825 197.666 891.513 197.333 890.327 196.666C889.156 195.984 888.23 195.043 887.548 193.842C886.866 192.642 886.525 191.285 886.525 189.774Z" fill="#C4C4C4"/>
<path d="M913.615 194.087H906.857L905.612 197.533H903.477L909.08 182.126H911.414L916.995 197.533H914.86L913.615 194.087ZM913.037 192.442L910.236 184.616L907.435 192.442H913.037Z" fill="#C4C4C4"/>
<path d="M928.975 182.037V183.682H924.75V197.533H922.727V183.682H918.481V182.037H928.975Z" fill="#C4C4C4"/>
<path d="M930.709 189.774C930.709 188.262 931.05 186.906 931.732 185.705C932.414 184.49 933.34 183.541 934.511 182.859C935.697 182.177 937.008 181.836 938.446 181.836C940.136 181.836 941.611 182.244 942.871 183.059C944.13 183.875 945.049 185.031 945.627 186.528H943.204C942.774 185.594 942.152 184.875 941.336 184.371C940.536 183.867 939.573 183.615 938.446 183.615C937.364 183.615 936.393 183.867 935.534 184.371C934.674 184.875 934 185.594 933.51 186.528C933.021 187.447 932.777 188.529 932.777 189.774C932.777 191.004 933.021 192.086 933.51 193.02C934 193.939 934.674 194.65 935.534 195.154C936.393 195.658 937.364 195.91 938.446 195.91C939.573 195.91 940.536 195.665 941.336 195.176C942.152 194.672 942.774 193.953 943.204 193.02H945.627C945.049 194.502 944.13 195.651 942.871 196.466C941.611 197.266 940.136 197.666 938.446 197.666C937.008 197.666 935.697 197.333 934.511 196.666C933.34 195.984 932.414 195.043 931.732 193.842C931.05 192.642 930.709 191.285 930.709 189.774Z" fill="#C4C4C4"/>
<path d="M960.378 186.528C959.948 185.623 959.326 184.927 958.511 184.438C957.695 183.934 956.747 183.682 955.665 183.682C954.583 183.682 953.604 183.934 952.73 184.438C951.87 184.927 951.188 185.638 950.685 186.572C950.195 187.491 949.951 188.558 949.951 189.774C949.951 190.989 950.195 192.056 950.685 192.975C951.188 193.894 951.87 194.606 952.73 195.11C953.604 195.599 954.583 195.843 955.665 195.843C957.177 195.843 958.422 195.391 959.4 194.487C960.378 193.583 960.949 192.36 961.112 190.819H954.931V189.173H963.268V190.73C963.15 192.004 962.75 193.175 962.068 194.242C961.386 195.295 960.489 196.132 959.378 196.755C958.266 197.362 957.028 197.666 955.665 197.666C954.227 197.666 952.915 197.333 951.729 196.666C950.544 195.984 949.603 195.043 948.906 193.842C948.224 192.642 947.883 191.285 947.883 189.774C947.883 188.262 948.224 186.906 948.906 185.705C949.603 184.49 950.544 183.548 951.729 182.881C952.915 182.2 954.227 181.859 955.665 181.859C957.31 181.859 958.762 182.266 960.022 183.082C961.297 183.897 962.223 185.045 962.801 186.528H960.378Z" fill="#C4C4C4"/>
<path d="M975.103 194.087H968.345L967.1 197.533H964.965L970.568 182.126H972.902L978.483 197.533H976.348L975.103 194.087ZM974.525 192.442L971.724 184.616L968.923 192.442H974.525Z" fill="#C4C4C4"/>
<path d="M756.409 215.704V217.349H752.185V231.2H750.161V217.349H745.915V215.704H756.409Z" fill="#C4C4C4"/>
<path d="M758.143 223.441C758.143 221.929 758.484 220.573 759.166 219.372C759.848 218.157 760.774 217.208 761.945 216.526C763.131 215.844 764.443 215.504 765.88 215.504C767.57 215.504 769.045 215.911 770.305 216.726C771.565 217.542 772.484 218.698 773.062 220.195H770.638C770.208 219.261 769.586 218.542 768.771 218.038C767.97 217.534 767.007 217.282 765.88 217.282C764.798 217.282 763.827 217.534 762.968 218.038C762.108 218.542 761.434 219.261 760.945 220.195C760.456 221.114 760.211 222.196 760.211 223.441C760.211 224.671 760.456 225.753 760.945 226.687C761.434 227.606 762.108 228.317 762.968 228.821C763.827 229.325 764.798 229.577 765.88 229.577C767.007 229.577 767.97 229.332 768.771 228.843C769.586 228.339 770.208 227.62 770.638 226.687H773.062C772.484 228.169 771.565 229.318 770.305 230.133C769.045 230.933 767.57 231.333 765.88 231.333C764.443 231.333 763.131 231 761.945 230.333C760.774 229.651 759.848 228.71 759.166 227.509C758.484 226.309 758.143 224.952 758.143 223.441Z" fill="#C4C4C4"/>
<path d="M787.812 220.195C787.382 219.291 786.76 218.594 785.945 218.105C785.129 217.601 784.181 217.349 783.099 217.349C782.017 217.349 781.039 217.601 780.164 218.105C779.304 218.594 778.623 219.305 778.119 220.239C777.63 221.158 777.385 222.225 777.385 223.441C777.385 224.656 777.63 225.723 778.119 226.642C778.623 227.561 779.304 228.273 780.164 228.777C781.039 229.266 782.017 229.51 783.099 229.51C784.611 229.51 785.856 229.058 786.834 228.154C787.812 227.25 788.383 226.027 788.546 224.486H782.365V222.84H790.703V224.397C790.584 225.671 790.184 226.842 789.502 227.909C788.82 228.962 787.923 229.799 786.812 230.422C785.7 231.03 784.463 231.333 783.099 231.333C781.661 231.333 780.349 231 779.164 230.333C777.978 229.651 777.037 228.71 776.34 227.509C775.658 226.309 775.317 224.952 775.317 223.441C775.317 221.929 775.658 220.573 776.34 219.372C777.037 218.157 777.978 217.215 779.164 216.548C780.349 215.867 781.661 215.526 783.099 215.526C784.744 215.526 786.197 215.933 787.457 216.749C788.731 217.564 789.658 218.712 790.236 220.195H787.812Z" fill="#C4C4C4"/>
<path d="M802.916 215.704V217.349H798.691V231.2H796.668V217.349H792.422V215.704H802.916Z" fill="#C4C4C4"/>
<path d="M814.566 227.754H807.807L806.562 231.2H804.428L810.03 215.793H812.365L817.945 231.2H815.811L814.566 227.754ZM813.988 226.109L811.187 218.283L808.385 226.109H813.988Z" fill="#C4C4C4"/>
<path d="M832.126 220.195C831.696 219.291 831.074 218.594 830.259 218.105C829.443 217.601 828.495 217.349 827.413 217.349C826.331 217.349 825.353 217.601 824.478 218.105C823.618 218.594 822.937 219.305 822.433 220.239C821.943 221.158 821.699 222.225 821.699 223.441C821.699 224.656 821.943 225.723 822.433 226.642C822.937 227.561 823.618 228.273 824.478 228.777C825.353 229.266 826.331 229.51 827.413 229.51C828.925 229.51 830.17 229.058 831.148 228.154C832.126 227.25 832.697 226.027 832.86 224.486H826.679V222.84H835.016V224.397C834.898 225.671 834.498 226.842 833.816 227.909C833.134 228.962 832.237 229.799 831.126 230.422C830.014 231.03 828.776 231.333 827.413 231.333C825.975 231.333 824.663 231 823.478 230.333C822.292 229.651 821.351 228.71 820.654 227.509C819.972 226.309 819.631 224.952 819.631 223.441C819.631 221.929 819.972 220.573 820.654 219.372C821.351 218.157 822.292 217.215 823.478 216.548C824.663 215.867 825.975 215.526 827.413 215.526C829.058 215.526 830.511 215.933 831.77 216.749C833.045 217.564 833.971 218.712 834.55 220.195H832.126Z" fill="#C4C4C4"/>
<path d="M849.431 220.195C849.001 219.291 848.378 218.594 847.563 218.105C846.748 217.601 845.799 217.349 844.717 217.349C843.635 217.349 842.657 217.601 841.782 218.105C840.923 218.594 840.241 219.305 839.737 220.239C839.248 221.158 839.003 222.225 839.003 223.441C839.003 224.656 839.248 225.723 839.737 226.642C840.241 227.561 840.923 228.273 841.782 228.777C842.657 229.266 843.635 229.51 844.717 229.51C846.229 229.51 847.474 229.058 848.452 228.154C849.431 227.25 850.001 226.027 850.164 224.486H843.983V222.84H852.321V224.397C852.202 225.671 851.802 226.842 851.12 227.909C850.438 228.962 849.542 229.799 848.43 230.422C847.318 231.03 846.081 231.333 844.717 231.333C843.279 231.333 841.968 231 840.782 230.333C839.596 229.651 838.655 228.71 837.958 227.509C837.277 226.309 836.936 224.952 836.936 223.441C836.936 221.929 837.277 220.573 837.958 219.372C838.655 218.157 839.596 217.215 840.782 216.548C841.968 215.867 843.279 215.526 844.717 215.526C846.362 215.526 847.815 215.933 849.075 216.749C850.349 217.564 851.276 218.712 851.854 220.195H849.431Z" fill="#C4C4C4"/>
<path d="M864.534 215.704V217.349H860.31V231.2H858.286V217.349H854.04V215.704H864.534Z" fill="#C4C4C4"/>
<path d="M876.184 227.754H869.425L868.18 231.2H866.046L871.649 215.793H873.983L879.564 231.2H877.429L876.184 227.754ZM875.606 226.109L872.805 218.283L870.003 226.109H875.606Z" fill="#C4C4C4"/>
<path d="M881.249 223.441C881.249 221.929 881.59 220.573 882.272 219.372C882.954 218.157 883.88 217.208 885.051 216.526C886.237 215.844 887.549 215.504 888.987 215.504C890.676 215.504 892.151 215.911 893.411 216.726C894.671 217.542 895.59 218.698 896.168 220.195H893.744C893.315 219.261 892.692 218.542 891.877 218.038C891.076 217.534 890.113 217.282 888.987 217.282C887.905 217.282 886.934 217.534 886.074 218.038C885.214 218.542 884.54 219.261 884.051 220.195C883.562 221.114 883.317 222.196 883.317 223.441C883.317 224.671 883.562 225.753 884.051 226.687C884.54 227.606 885.214 228.317 886.074 228.821C886.934 229.325 887.905 229.577 888.987 229.577C890.113 229.577 891.076 229.332 891.877 228.843C892.692 228.339 893.315 227.62 893.744 226.687H896.168C895.59 228.169 894.671 229.318 893.411 230.133C892.151 230.933 890.676 231.333 888.987 231.333C887.549 231.333 886.237 231 885.051 230.333C883.88 229.651 882.954 228.71 882.272 227.509C881.59 226.309 881.249 224.952 881.249 223.441Z" fill="#C4C4C4"/>
<path d="M908.717 215.704V217.349H904.493V231.2H902.47V217.349H898.223V215.704H908.717Z" fill="#C4C4C4"/>
<path d="M920.368 227.754H913.609L912.364 231.2H910.23L915.832 215.793H918.167L923.747 231.2H921.613L920.368 227.754ZM919.79 226.109L916.988 218.283L914.187 226.109H919.79Z" fill="#C4C4C4"/>
<path d="M925.433 223.441C925.433 221.929 925.774 220.573 926.456 219.372C927.138 218.157 928.064 217.208 929.235 216.526C930.421 215.844 931.732 215.504 933.17 215.504C934.86 215.504 936.335 215.911 937.595 216.726C938.854 217.542 939.773 218.698 940.351 220.195H937.928C937.498 219.261 936.876 218.542 936.06 218.038C935.26 217.534 934.297 217.282 933.17 217.282C932.088 217.282 931.117 217.534 930.258 218.038C929.398 218.542 928.724 219.261 928.234 220.195C927.745 221.114 927.501 222.196 927.501 223.441C927.501 224.671 927.745 225.753 928.234 226.687C928.724 227.606 929.398 228.317 930.258 228.821C931.117 229.325 932.088 229.577 933.17 229.577C934.297 229.577 935.26 229.332 936.06 228.843C936.876 228.339 937.498 227.62 937.928 226.687H940.351C939.773 228.169 938.854 229.318 937.595 230.133C936.335 230.933 934.86 231.333 933.17 231.333C931.732 231.333 930.421 231 929.235 230.333C928.064 229.651 927.138 228.71 926.456 227.509C925.774 226.309 925.433 224.952 925.433 223.441Z" fill="#C4C4C4"/>
<path d="M942.607 223.441C942.607 221.929 942.948 220.573 943.63 219.372C944.312 218.157 945.238 217.208 946.409 216.526C947.595 215.844 948.907 215.504 950.344 215.504C952.034 215.504 953.509 215.911 954.769 216.726C956.028 217.542 956.947 218.698 957.525 220.195H955.102C954.672 219.261 954.05 218.542 953.235 218.038C952.434 217.534 951.471 217.282 950.344 217.282C949.262 217.282 948.291 217.534 947.432 218.038C946.572 218.542 945.898 219.261 945.409 220.195C944.919 221.114 944.675 222.196 944.675 223.441C944.675 224.671 944.919 225.753 945.409 226.687C945.898 227.606 946.572 228.317 947.432 228.821C948.291 229.325 949.262 229.577 950.344 229.577C951.471 229.577 952.434 229.332 953.235 228.843C954.05 228.339 954.672 227.62 955.102 226.687H957.525C956.947 228.169 956.028 229.318 954.769 230.133C953.509 230.933 952.034 231.333 950.344 231.333C948.907 231.333 947.595 231 946.409 230.333C945.238 229.651 944.312 228.71 943.63 227.509C942.948 226.309 942.607 224.952 942.607 223.441Z" fill="#C4C4C4"/>
<path d="M970.075 215.704V217.349H965.851V231.2H963.828V217.349H959.581V215.704H970.075Z" fill="#C4C4C4"/>
<path d="M756.031 261.421H749.272L748.027 264.867H745.893L751.495 249.46H753.83L759.41 264.867H757.276L756.031 261.421ZM755.453 259.776L752.651 251.95L749.85 259.776H755.453Z" fill="#C4C4C4"/>
<path d="M773.591 253.862C773.161 252.958 772.539 252.261 771.723 251.772C770.908 251.268 769.96 251.016 768.878 251.016C767.796 251.016 766.817 251.268 765.943 251.772C765.083 252.261 764.401 252.972 763.897 253.906C763.408 254.825 763.164 255.892 763.164 257.108C763.164 258.323 763.408 259.39 763.897 260.309C764.401 261.228 765.083 261.94 765.943 262.444C766.817 262.933 767.796 263.177 768.878 263.177C770.389 263.177 771.635 262.725 772.613 261.821C773.591 260.917 774.162 259.694 774.325 258.153H768.144V256.507H776.481V258.064C776.363 259.338 775.963 260.509 775.281 261.576C774.599 262.629 773.702 263.466 772.591 264.089C771.479 264.697 770.241 265 768.878 265C767.44 265 766.128 264.667 764.942 264C763.757 263.318 762.815 262.377 762.119 261.176C761.437 259.976 761.096 258.62 761.096 257.108C761.096 255.596 761.437 254.24 762.119 253.039C762.815 251.824 763.757 250.882 764.942 250.215C766.128 249.534 767.44 249.193 768.878 249.193C770.523 249.193 771.975 249.6 773.235 250.416C774.51 251.231 775.436 252.379 776.014 253.862H773.591Z" fill="#C4C4C4"/>
<path d="M778.4 257.108C778.4 255.596 778.741 254.24 779.423 253.039C780.105 251.824 781.031 250.875 782.202 250.193C783.388 249.511 784.7 249.171 786.138 249.171C787.827 249.171 789.302 249.578 790.562 250.393C791.822 251.209 792.741 252.365 793.319 253.862H790.895C790.466 252.928 789.843 252.209 789.028 251.705C788.227 251.201 787.264 250.949 786.138 250.949C785.055 250.949 784.085 251.201 783.225 251.705C782.365 252.209 781.691 252.928 781.202 253.862C780.713 254.781 780.468 255.863 780.468 257.108C780.468 258.338 780.713 259.42 781.202 260.354C781.691 261.273 782.365 261.984 783.225 262.488C784.085 262.992 785.055 263.244 786.138 263.244C787.264 263.244 788.227 262.999 789.028 262.51C789.843 262.006 790.466 261.287 790.895 260.354H793.319C792.741 261.836 791.822 262.985 790.562 263.8C789.302 264.6 787.827 265 786.138 265C784.7 265 783.388 264.667 782.202 264C781.031 263.318 780.105 262.377 779.423 261.176C778.741 259.976 778.4 258.62 778.4 257.108Z" fill="#C4C4C4"/>
<path d="M805.49 261.421H798.732L797.487 264.867H795.352L800.955 249.46H803.289L808.87 264.867H806.735L805.49 261.421ZM804.912 259.776L802.111 251.95L799.31 259.776H804.912Z" fill="#C4C4C4"/>
<path d="M820.472 261.421H813.713L812.468 264.867H810.333L815.936 249.46H818.271L823.851 264.867H821.717L820.472 261.421ZM819.894 259.776L817.092 251.95L814.291 259.776H819.894Z" fill="#C4C4C4"/>
<path d="M838.032 253.862C837.602 252.958 836.979 252.261 836.164 251.772C835.349 251.268 834.4 251.016 833.318 251.016C832.236 251.016 831.258 251.268 830.384 251.772C829.524 252.261 828.842 252.972 828.338 253.906C827.849 254.825 827.605 255.892 827.605 257.108C827.605 258.323 827.849 259.39 828.338 260.309C828.842 261.228 829.524 261.94 830.384 262.444C831.258 262.933 832.236 263.177 833.318 263.177C834.83 263.177 836.075 262.725 837.054 261.821C838.032 260.917 838.602 259.694 838.765 258.153H832.585V256.507H840.922V258.064C840.803 259.338 840.403 260.509 839.721 261.576C839.04 262.629 838.143 263.466 837.031 264.089C835.92 264.697 834.682 265 833.318 265C831.881 265 830.569 264.667 829.383 264C828.197 263.318 827.256 262.377 826.56 261.176C825.878 259.976 825.537 258.62 825.537 257.108C825.537 255.596 825.878 254.24 826.56 253.039C827.256 251.824 828.197 250.882 829.383 250.215C830.569 249.534 831.881 249.193 833.318 249.193C834.964 249.193 836.416 249.6 837.676 250.416C838.951 251.231 839.877 252.379 840.455 253.862H838.032Z" fill="#C4C4C4"/>
<path d="M842.841 257.108C842.841 255.596 843.182 254.24 843.864 253.039C844.546 251.824 845.472 250.875 846.643 250.193C847.829 249.511 849.141 249.171 850.578 249.171C852.268 249.171 853.743 249.578 855.003 250.393C856.263 251.209 857.181 252.365 857.76 253.862H855.336C854.906 252.928 854.284 252.209 853.469 251.705C852.668 251.201 851.705 250.949 850.578 250.949C849.496 250.949 848.525 251.201 847.666 251.705C846.806 252.209 846.132 252.928 845.643 253.862C845.153 254.781 844.909 255.863 844.909 257.108C844.909 258.338 845.153 259.42 845.643 260.354C846.132 261.273 846.806 261.984 847.666 262.488C848.525 262.992 849.496 263.244 850.578 263.244C851.705 263.244 852.668 262.999 853.469 262.51C854.284 262.006 854.906 261.287 855.336 260.354H857.76C857.181 261.836 856.263 262.985 855.003 263.8C853.743 264.6 852.268 265 850.578 265C849.141 265 847.829 264.667 846.643 264C845.472 263.318 844.546 262.377 843.864 261.176C843.182 259.976 842.841 258.62 842.841 257.108Z" fill="#C4C4C4"/>
<path d="M869.931 261.421H863.172L861.927 264.867H859.793L865.396 249.46H867.73L873.311 264.867H871.176L869.931 261.421ZM869.353 259.776L866.552 251.95L863.75 259.776H869.353Z" fill="#C4C4C4"/>
<path d="M884.912 261.421H878.154L876.909 264.867H874.774L880.377 249.46H882.711L888.292 264.867H886.157L884.912 261.421ZM884.334 259.776L881.533 251.95L878.732 259.776H884.334Z" fill="#C4C4C4"/>
<path d="M899.894 261.421H893.135L891.89 264.867H889.755L895.358 249.46H897.692L903.273 264.867H901.139L899.894 261.421ZM899.315 259.776L896.514 251.95L893.713 259.776H899.315Z" fill="#C4C4C4"/>
<path d="M904.959 257.108C904.959 255.596 905.3 254.24 905.982 253.039C906.663 251.824 907.59 250.875 908.761 250.193C909.946 249.511 911.258 249.171 912.696 249.171C914.386 249.171 915.86 249.578 917.12 250.393C918.38 251.209 919.299 252.365 919.877 253.862H917.454C917.024 252.928 916.401 252.209 915.586 251.705C914.786 251.201 913.822 250.949 912.696 250.949C911.614 250.949 910.643 251.201 909.783 251.705C908.924 252.209 908.249 252.928 907.76 253.862C907.271 254.781 907.026 255.863 907.026 257.108C907.026 258.338 907.271 259.42 907.76 260.354C908.249 261.273 908.924 261.984 909.783 262.488C910.643 262.992 911.614 263.244 912.696 263.244C913.822 263.244 914.786 262.999 915.586 262.51C916.401 262.006 917.024 261.287 917.454 260.354H919.877C919.299 261.836 918.38 262.985 917.12 263.8C915.86 264.6 914.386 265 912.696 265C911.258 265 909.946 264.667 908.761 264C907.59 263.318 906.663 262.377 905.982 261.176C905.3 259.976 904.959 258.62 904.959 257.108Z" fill="#C4C4C4"/>
<path d="M934.628 253.862C934.198 252.958 933.575 252.261 932.76 251.772C931.945 251.268 930.996 251.016 929.914 251.016C928.832 251.016 927.854 251.268 926.98 251.772C926.12 252.261 925.438 252.972 924.934 253.906C924.445 254.825 924.201 255.892 924.201 257.108C924.201 258.323 924.445 259.39 924.934 260.309C925.438 261.228 926.12 261.94 926.98 262.444C927.854 262.933 928.832 263.177 929.914 263.177C931.426 263.177 932.671 262.725 933.65 261.821C934.628 260.917 935.198 259.694 935.362 258.153H929.181V256.507H937.518V258.064C937.4 259.338 936.999 260.509 936.318 261.576C935.636 262.629 934.739 263.466 933.627 264.089C932.516 264.697 931.278 265 929.914 265C928.477 265 927.165 264.667 925.979 264C924.793 263.318 923.852 262.377 923.156 261.176C922.474 259.976 922.133 258.62 922.133 257.108C922.133 255.596 922.474 254.24 923.156 253.039C923.852 251.824 924.793 250.882 925.979 250.215C927.165 249.534 928.477 249.193 929.914 249.193C931.56 249.193 933.012 249.6 934.272 250.416C935.547 251.231 936.473 252.379 937.051 253.862H934.628Z" fill="#C4C4C4"/>
<path d="M949.731 249.371V251.016H945.507V264.867H943.484V251.016H939.237V249.371H949.731Z" fill="#C4C4C4"/>
<path d="M961.382 261.421H954.623L953.378 264.867H951.243L956.846 249.46H959.18L964.761 264.867H962.627L961.382 261.421ZM960.803 259.776L958.002 251.95L955.201 259.776H960.803Z" fill="#C4C4C4"/>
<path d="M758.61 287.529C758.18 286.625 757.557 285.928 756.742 285.439C755.927 284.935 754.978 284.683 753.896 284.683C752.814 284.683 751.836 284.935 750.962 285.439C750.102 285.928 749.42 286.639 748.916 287.573C748.427 288.492 748.183 289.559 748.183 290.775C748.183 291.99 748.427 293.057 748.916 293.976C749.42 294.895 750.102 295.607 750.962 296.111C751.836 296.6 752.814 296.844 753.896 296.844C755.408 296.844 756.653 296.392 757.632 295.488C758.61 294.584 759.18 293.361 759.344 291.82H753.163V290.174H761.5V291.731C761.382 293.005 760.981 294.176 760.3 295.244C759.618 296.296 758.721 297.133 757.609 297.756C756.498 298.364 755.26 298.667 753.896 298.667C752.459 298.667 751.147 298.334 749.961 297.667C748.775 296.985 747.834 296.044 747.138 294.843C746.456 293.643 746.115 292.287 746.115 290.775C746.115 289.263 746.456 287.907 747.138 286.706C747.834 285.491 748.775 284.549 749.961 283.882C751.147 283.201 752.459 282.86 753.896 282.86C755.542 282.86 756.994 283.267 758.254 284.083C759.529 284.898 760.455 286.046 761.033 287.529H758.61Z" fill="#C4C4C4"/>
<path d="M775.914 287.529C775.484 286.625 774.862 285.928 774.047 285.439C773.231 284.935 772.283 284.683 771.201 284.683C770.119 284.683 769.141 284.935 768.266 285.439C767.406 285.928 766.725 286.639 766.221 287.573C765.731 288.492 765.487 289.559 765.487 290.775C765.487 291.99 765.731 293.057 766.221 293.976C766.725 294.895 767.406 295.607 768.266 296.111C769.141 296.6 770.119 296.844 771.201 296.844C772.713 296.844 773.958 296.392 774.936 295.488C775.914 294.584 776.485 293.361 776.648 291.82H770.467V290.174H778.804V291.731C778.686 293.005 778.286 294.176 777.604 295.244C776.922 296.296 776.025 297.133 774.914 297.756C773.802 298.364 772.564 298.667 771.201 298.667C769.763 298.667 768.451 298.334 767.266 297.667C766.08 296.985 765.139 296.044 764.442 294.843C763.76 293.643 763.419 292.287 763.419 290.775C763.419 289.263 763.76 287.907 764.442 286.706C765.139 285.491 766.08 284.549 767.266 283.882C768.451 283.201 769.763 282.86 771.201 282.86C772.846 282.86 774.299 283.267 775.558 284.083C776.833 284.898 777.76 286.046 778.338 287.529H775.914Z" fill="#C4C4C4"/>
<path d="M790.639 295.088H783.881L782.636 298.534H780.501L786.104 283.127H788.438L794.019 298.534H791.885L790.639 295.088ZM790.061 293.443L787.26 285.617L784.459 293.443H790.061Z" fill="#C4C4C4"/>
<path d="M805.999 283.038V284.683H801.774V298.534H799.751V284.683H795.505V283.038H805.999Z" fill="#C4C4C4"/>
<path d="M820.228 287.529C819.798 286.625 819.176 285.928 818.36 285.439C817.545 284.935 816.597 284.683 815.515 284.683C814.433 284.683 813.454 284.935 812.58 285.439C811.72 285.928 811.038 286.639 810.535 287.573C810.045 288.492 809.801 289.559 809.801 290.775C809.801 291.99 810.045 293.057 810.535 293.976C811.038 294.895 811.72 295.607 812.58 296.111C813.454 296.6 814.433 296.844 815.515 296.844C817.027 296.844 818.272 296.392 819.25 295.488C820.228 294.584 820.799 293.361 820.962 291.82H814.781V290.174H823.118V291.731C823 293.005 822.6 294.176 821.918 295.244C821.236 296.296 820.339 297.133 819.228 297.756C818.116 298.364 816.878 298.667 815.515 298.667C814.077 298.667 812.765 298.334 811.579 297.667C810.394 296.985 809.452 296.044 808.756 294.843C808.074 293.643 807.733 292.287 807.733 290.775C807.733 289.263 808.074 287.907 808.756 286.706C809.452 285.491 810.394 284.549 811.579 283.882C812.765 283.201 814.077 282.86 815.515 282.86C817.16 282.86 818.612 283.267 819.872 284.083C821.147 284.898 822.073 286.046 822.651 287.529H820.228Z" fill="#C4C4C4"/>
<path d="M825.037 290.775C825.037 289.263 825.378 287.907 826.06 286.706C826.742 285.491 827.668 284.542 828.839 283.86C830.025 283.178 831.337 282.838 832.775 282.838C834.464 282.838 835.939 283.245 837.199 284.06C838.459 284.876 839.378 286.032 839.956 287.529H837.532C837.103 286.595 836.48 285.876 835.665 285.372C834.864 284.868 833.901 284.616 832.775 284.616C831.693 284.616 830.722 284.868 829.862 285.372C829.002 285.876 828.328 286.595 827.839 287.529C827.35 288.448 827.105 289.53 827.105 290.775C827.105 292.005 827.35 293.087 827.839 294.021C828.328 294.94 829.002 295.651 829.862 296.155C830.722 296.659 831.693 296.911 832.775 296.911C833.901 296.911 834.864 296.666 835.665 296.177C836.48 295.673 837.103 294.954 837.532 294.021H839.956C839.378 295.503 838.459 296.652 837.199 297.467C835.939 298.267 834.464 298.667 832.775 298.667C831.337 298.667 830.025 298.334 828.839 297.667C827.668 296.985 826.742 296.044 826.06 294.843C825.378 293.643 825.037 292.287 825.037 290.775Z" fill="#C4C4C4"/>
<path d="M852.127 295.088H845.369L844.124 298.534H841.989L847.592 283.127H849.926L855.507 298.534H853.373L852.127 295.088ZM851.549 293.443L848.748 285.617L845.947 293.443H851.549Z" fill="#C4C4C4"/>
<path d="M867.487 283.038V284.683H863.262V298.534H861.239V284.683H856.993V283.038H867.487Z" fill="#C4C4C4"/>
<path d="M869.221 290.775C869.221 289.263 869.562 287.907 870.244 286.706C870.926 285.491 871.852 284.542 873.023 283.86C874.209 283.178 875.52 282.838 876.958 282.838C878.648 282.838 880.123 283.245 881.383 284.06C882.642 284.876 883.561 286.032 884.139 287.529H881.716C881.286 286.595 880.664 285.876 879.848 285.372C879.048 284.868 878.085 284.616 876.958 284.616C875.876 284.616 874.905 284.868 874.046 285.372C873.186 285.876 872.512 286.595 872.022 287.529C871.533 288.448 871.289 289.53 871.289 290.775C871.289 292.005 871.533 293.087 872.022 294.021C872.512 294.94 873.186 295.651 874.046 296.155C874.905 296.659 875.876 296.911 876.958 296.911C878.085 296.911 879.048 296.666 879.848 296.177C880.664 295.673 881.286 294.954 881.716 294.021H884.139C883.561 295.503 882.642 296.652 881.383 297.467C880.123 298.267 878.648 298.667 876.958 298.667C875.52 298.667 874.209 298.334 873.023 297.667C871.852 296.985 870.926 296.044 870.244 294.843C869.562 293.643 869.221 292.287 869.221 290.775Z" fill="#C4C4C4"/>
<path d="M898.89 287.529C898.46 286.625 897.838 285.928 897.023 285.439C896.207 284.935 895.259 284.683 894.177 284.683C893.095 284.683 892.116 284.935 891.242 285.439C890.382 285.928 889.7 286.639 889.197 287.573C888.707 288.492 888.463 289.559 888.463 290.775C888.463 291.99 888.707 293.057 889.197 293.976C889.7 294.895 890.382 295.607 891.242 296.111C892.116 296.6 893.095 296.844 894.177 296.844C895.689 296.844 896.934 296.392 897.912 295.488C898.89 294.584 899.461 293.361 899.624 291.82H893.443V290.174H901.78V291.731C901.662 293.005 901.262 294.176 900.58 295.244C899.898 296.296 899.001 297.133 897.89 297.756C896.778 298.364 895.54 298.667 894.177 298.667C892.739 298.667 891.427 298.334 890.242 297.667C889.056 296.985 888.115 296.044 887.418 294.843C886.736 293.643 886.395 292.287 886.395 290.775C886.395 289.263 886.736 287.907 887.418 286.706C888.115 285.491 889.056 284.549 890.242 283.882C891.427 283.201 892.739 282.86 894.177 282.86C895.822 282.86 897.275 283.267 898.534 284.083C899.809 284.898 900.735 286.046 901.314 287.529H898.89Z" fill="#C4C4C4"/>
<path d="M913.615 295.088H906.857L905.612 298.534H903.477L909.08 283.127H911.414L916.995 298.534H914.86L913.615 295.088ZM913.037 293.443L910.236 285.617L907.435 293.443H913.037Z" fill="#C4C4C4"/>
<path d="M928.975 283.038V284.683H924.75V298.534H922.727V284.683H918.481V283.038H928.975Z" fill="#C4C4C4"/>
<path d="M930.709 290.775C930.709 289.263 931.05 287.907 931.732 286.706C932.414 285.491 933.34 284.542 934.511 283.86C935.697 283.178 937.008 282.838 938.446 282.838C940.136 282.838 941.611 283.245 942.871 284.06C944.13 284.876 945.049 286.032 945.627 287.529H943.204C942.774 286.595 942.152 285.876 941.336 285.372C940.536 284.868 939.573 284.616 938.446 284.616C937.364 284.616 936.393 284.868 935.534 285.372C934.674 285.876 934 286.595 933.51 287.529C933.021 288.448 932.777 289.53 932.777 290.775C932.777 292.005 933.021 293.087 933.51 294.021C934 294.94 934.674 295.651 935.534 296.155C936.393 296.659 937.364 296.911 938.446 296.911C939.573 296.911 940.536 296.666 941.336 296.177C942.152 295.673 942.774 294.954 943.204 294.021H945.627C945.049 295.503 944.13 296.652 942.871 297.467C941.611 298.267 940.136 298.667 938.446 298.667C937.008 298.667 935.697 298.334 934.511 297.667C933.34 296.985 932.414 296.044 931.732 294.843C931.05 293.643 930.709 292.287 930.709 290.775Z" fill="#C4C4C4"/>
<path d="M960.378 287.529C959.948 286.625 959.326 285.928 958.511 285.439C957.695 284.935 956.747 284.683 955.665 284.683C954.583 284.683 953.604 284.935 952.73 285.439C951.87 285.928 951.188 286.639 950.685 287.573C950.195 288.492 949.951 289.559 949.951 290.775C949.951 291.99 950.195 293.057 950.685 293.976C951.188 294.895 951.87 295.607 952.73 296.111C953.604 296.6 954.583 296.844 955.665 296.844C957.177 296.844 958.422 296.392 959.4 295.488C960.378 294.584 960.949 293.361 961.112 291.82H954.931V290.174H963.268V291.731C963.15 293.005 962.75 294.176 962.068 295.244C961.386 296.296 960.489 297.133 959.378 297.756C958.266 298.364 957.028 298.667 955.665 298.667C954.227 298.667 952.915 298.334 951.729 297.667C950.544 296.985 949.603 296.044 948.906 294.843C948.224 293.643 947.883 292.287 947.883 290.775C947.883 289.263 948.224 287.907 948.906 286.706C949.603 285.491 950.544 284.549 951.729 283.882C952.915 283.201 954.227 282.86 955.665 282.86C957.31 282.86 958.762 283.267 960.022 284.083C961.297 284.898 962.223 286.046 962.801 287.529H960.378Z" fill="#C4C4C4"/>
<path d="M975.481 283.038V284.683H971.257V298.534H969.234V284.683H964.987V283.038H975.481Z" fill="#C4C4C4"/>
<path d="M756.031 328.755H749.272L748.027 332.201H745.893L751.495 316.794H753.83L759.41 332.201H757.276L756.031 328.755ZM755.453 327.11L752.651 319.284L749.85 327.11H755.453Z" fill="#C4C4C4"/>
<path d="M773.591 321.196C773.161 320.292 772.539 319.595 771.723 319.106C770.908 318.602 769.96 318.35 768.878 318.35C767.796 318.35 766.817 318.602 765.943 319.106C765.083 319.595 764.401 320.306 763.897 321.24C763.408 322.159 763.164 323.226 763.164 324.442C763.164 325.657 763.408 326.724 763.897 327.643C764.401 328.562 765.083 329.274 765.943 329.778C766.817 330.267 767.796 330.511 768.878 330.511C770.389 330.511 771.635 330.059 772.613 329.155C773.591 328.251 774.162 327.028 774.325 325.487H768.144V323.841H776.481V325.398C776.363 326.672 775.963 327.843 775.281 328.911C774.599 329.963 773.702 330.8 772.591 331.423C771.479 332.031 770.241 332.334 768.878 332.334C767.44 332.334 766.128 332.001 764.942 331.334C763.757 330.652 762.815 329.711 762.119 328.51C761.437 327.31 761.096 325.954 761.096 324.442C761.096 322.93 761.437 321.574 762.119 320.373C762.815 319.158 763.757 318.216 764.942 317.55C766.128 316.868 767.44 316.527 768.878 316.527C770.523 316.527 771.975 316.934 773.235 317.75C774.51 318.565 775.436 319.714 776.014 321.196H773.591Z" fill="#C4C4C4"/>
<path d="M790.895 321.196C790.466 320.292 789.843 319.595 789.028 319.106C788.213 318.602 787.264 318.35 786.182 318.35C785.1 318.35 784.122 318.602 783.247 319.106C782.388 319.595 781.706 320.306 781.202 321.24C780.713 322.159 780.468 323.226 780.468 324.442C780.468 325.657 780.713 326.724 781.202 327.643C781.706 328.562 782.388 329.274 783.247 329.778C784.122 330.267 785.1 330.511 786.182 330.511C787.694 330.511 788.939 330.059 789.917 329.155C790.895 328.251 791.466 327.028 791.629 325.487H785.448V323.841H793.786V325.398C793.667 326.672 793.267 327.843 792.585 328.911C791.903 329.963 791.007 330.8 789.895 331.423C788.783 332.031 787.546 332.334 786.182 332.334C784.744 332.334 783.432 332.001 782.247 331.334C781.061 330.652 780.12 329.711 779.423 328.51C778.741 327.31 778.4 325.954 778.4 324.442C778.4 322.93 778.741 321.574 779.423 320.373C780.12 319.158 781.061 318.216 782.247 317.55C783.432 316.868 784.744 316.527 786.182 316.527C787.827 316.527 789.28 316.934 790.54 317.75C791.814 318.565 792.741 319.714 793.319 321.196H790.895Z" fill="#C4C4C4"/>
<path d="M805.999 316.705V318.35H801.774V332.201H799.751V318.35H795.505V316.705H805.999Z" fill="#C4C4C4"/>
<path d="M817.649 328.755H810.89L809.645 332.201H807.511L813.114 316.794H815.448L821.028 332.201H818.894L817.649 328.755ZM817.071 327.11L814.27 319.284L811.468 327.11H817.071Z" fill="#C4C4C4"/>
<path d="M822.714 324.442C822.714 322.93 823.055 321.574 823.737 320.373C824.419 319.158 825.345 318.209 826.516 317.527C827.702 316.845 829.014 316.505 830.451 316.505C832.141 316.505 833.616 316.912 834.876 317.727C836.136 318.543 837.055 319.699 837.633 321.196H835.209C834.779 320.262 834.157 319.543 833.342 319.039C832.541 318.535 831.578 318.283 830.451 318.283C829.369 318.283 828.399 318.535 827.539 319.039C826.679 319.543 826.005 320.262 825.516 321.196C825.027 322.115 824.782 323.197 824.782 324.442C824.782 325.672 825.027 326.754 825.516 327.688C826.005 328.607 826.679 329.318 827.539 329.822C828.399 330.326 829.369 330.578 830.451 330.578C831.578 330.578 832.541 330.333 833.342 329.844C834.157 329.34 834.779 328.622 835.209 327.688H837.633C837.055 329.17 836.136 330.319 834.876 331.134C833.616 331.934 832.141 332.334 830.451 332.334C829.014 332.334 827.702 332.001 826.516 331.334C825.345 330.652 824.419 329.711 823.737 328.51C823.055 327.31 822.714 325.954 822.714 324.442Z" fill="#C4C4C4"/>
<path d="M850.182 316.705V318.35H845.958V332.201H843.935V318.35H839.688V316.705H850.182Z" fill="#C4C4C4"/>
<path d="M861.833 328.755H855.074L853.829 332.201H851.694L857.297 316.794H859.632L865.212 332.201H863.078L861.833 328.755ZM861.255 327.11L858.453 319.284L855.652 327.11H861.255Z" fill="#C4C4C4"/>
<path d="M866.898 324.442C866.898 322.93 867.239 321.574 867.921 320.373C868.602 319.158 869.529 318.209 870.7 317.527C871.886 316.845 873.197 316.505 874.635 316.505C876.325 316.505 877.8 316.912 879.059 317.727C880.319 318.543 881.238 319.699 881.816 321.196H879.393C878.963 320.262 878.341 319.543 877.525 319.039C876.725 318.535 875.761 318.283 874.635 318.283C873.553 318.283 872.582 318.535 871.723 319.039C870.863 319.543 870.188 320.262 869.699 321.196C869.21 322.115 868.966 323.197 868.966 324.442C868.966 325.672 869.21 326.754 869.699 327.688C870.188 328.607 870.863 329.318 871.723 329.822C872.582 330.326 873.553 330.578 874.635 330.578C875.761 330.578 876.725 330.333 877.525 329.844C878.341 329.34 878.963 328.622 879.393 327.688H881.816C881.238 329.17 880.319 330.319 879.059 331.134C877.8 331.934 876.325 332.334 874.635 332.334C873.197 332.334 871.886 332.001 870.7 331.334C869.529 330.652 868.602 329.711 867.921 328.51C867.239 327.31 866.898 325.954 866.898 324.442Z" fill="#C4C4C4"/>
<path d="M884.072 324.442C884.072 322.93 884.413 321.574 885.095 320.373C885.777 319.158 886.703 318.209 887.874 317.527C889.06 316.845 890.371 316.505 891.809 316.505C893.499 316.505 894.974 316.912 896.233 317.727C897.493 318.543 898.412 319.699 898.99 321.196H896.567C896.137 320.262 895.515 319.543 894.699 319.039C893.899 318.535 892.936 318.283 891.809 318.283C890.727 318.283 889.756 318.535 888.897 319.039C888.037 319.543 887.363 320.262 886.873 321.196C886.384 322.115 886.14 323.197 886.14 324.442C886.14 325.672 886.384 326.754 886.873 327.688C887.363 328.607 888.037 329.318 888.897 329.822C889.756 330.326 890.727 330.578 891.809 330.578C892.936 330.578 893.899 330.333 894.699 329.844C895.515 329.34 896.137 328.622 896.567 327.688H898.99C898.412 329.17 897.493 330.319 896.233 331.134C894.974 331.934 893.499 332.334 891.809 332.334C890.371 332.334 889.06 332.001 887.874 331.334C886.703 330.652 885.777 329.711 885.095 328.51C884.413 327.31 884.072 325.954 884.072 324.442Z" fill="#C4C4C4"/>
<path d="M911.162 328.755H904.403L903.158 332.201H901.024L906.626 316.794H908.961L914.541 332.201H912.407L911.162 328.755ZM910.584 327.11L907.783 319.284L904.981 327.11H910.584Z" fill="#C4C4C4"/>
<path d="M926.521 316.705V318.35H922.297V332.201H920.274V318.35H916.027V316.705H926.521Z" fill="#C4C4C4"/>
<path d="M928.256 324.442C928.256 322.93 928.597 321.574 929.278 320.373C929.96 319.158 930.887 318.209 932.057 317.527C933.243 316.845 934.555 316.505 935.993 316.505C937.682 316.505 939.157 316.912 940.417 317.727C941.677 318.543 942.596 319.699 943.174 321.196H940.751C940.321 320.262 939.698 319.543 938.883 319.039C938.083 318.535 937.119 318.283 935.993 318.283C934.911 318.283 933.94 318.535 933.08 319.039C932.221 319.543 931.546 320.262 931.057 321.196C930.568 322.115 930.323 323.197 930.323 324.442C930.323 325.672 930.568 326.754 931.057 327.688C931.546 328.607 932.221 329.318 933.08 329.822C933.94 330.326 934.911 330.578 935.993 330.578C937.119 330.578 938.083 330.333 938.883 329.844C939.698 329.34 940.321 328.622 940.751 327.688H943.174C942.596 329.17 941.677 330.319 940.417 331.134C939.157 331.934 937.682 332.334 935.993 332.334C934.555 332.334 933.243 332.001 932.057 331.334C930.887 330.652 929.96 329.711 929.278 328.51C928.597 327.31 928.256 325.954 928.256 324.442Z" fill="#C4C4C4"/>
<path d="M957.925 321.196C957.495 320.292 956.872 319.595 956.057 319.106C955.242 318.602 954.293 318.35 953.211 318.35C952.129 318.35 951.151 318.602 950.277 319.106C949.417 319.595 948.735 320.306 948.231 321.24C947.742 322.159 947.497 323.226 947.497 324.442C947.497 325.657 947.742 326.724 948.231 327.643C948.735 328.562 949.417 329.274 950.277 329.778C951.151 330.267 952.129 330.511 953.211 330.511C954.723 330.511 955.968 330.059 956.946 329.155C957.925 328.251 958.495 327.028 958.658 325.487H952.478V323.841H960.815V325.398C960.696 326.672 960.296 327.843 959.614 328.911C958.933 329.963 958.036 330.8 956.924 331.423C955.813 332.031 954.575 332.334 953.211 332.334C951.774 332.334 950.462 332.001 949.276 331.334C948.09 330.652 947.149 329.711 946.452 328.51C945.771 327.31 945.43 325.954 945.43 324.442C945.43 322.93 945.771 321.574 946.452 320.373C947.149 319.158 948.09 318.216 949.276 317.55C950.462 316.868 951.774 316.527 953.211 316.527C954.857 316.527 956.309 316.934 957.569 317.75C958.844 318.565 959.77 319.714 960.348 321.196H957.925Z" fill="#C4C4C4"/>
<path d="M972.65 328.755H965.891L964.646 332.201H962.512L968.114 316.794H970.449L976.029 332.201H973.895L972.65 328.755ZM972.072 327.11L969.271 319.284L966.469 327.11H972.072Z" fill="#C4C4C4"/>
<path d="M756.409 350.372V352.017H752.185V365.868H750.161V352.017H745.915V350.372H756.409Z" fill="#C4C4C4"/>
<path d="M758.143 358.109C758.143 356.597 758.484 355.241 759.166 354.04C759.848 352.825 760.774 351.876 761.945 351.194C763.131 350.512 764.443 350.172 765.88 350.172C767.57 350.172 769.045 350.579 770.305 351.394C771.565 352.21 772.484 353.366 773.062 354.863H770.638C770.208 353.929 769.586 353.21 768.771 352.706C767.97 352.202 767.007 351.95 765.88 351.95C764.798 351.95 763.827 352.202 762.968 352.706C762.108 353.21 761.434 353.929 760.945 354.863C760.456 355.782 760.211 356.864 760.211 358.109C760.211 359.339 760.456 360.421 760.945 361.355C761.434 362.274 762.108 362.985 762.968 363.489C763.827 363.993 764.798 364.245 765.88 364.245C767.007 364.245 767.97 364 768.771 363.511C769.586 363.007 770.208 362.289 770.638 361.355H773.062C772.484 362.837 771.565 363.986 770.305 364.801C769.045 365.601 767.57 366.001 765.88 366.001C764.443 366.001 763.131 365.668 761.945 365.001C760.774 364.319 759.848 363.378 759.166 362.177C758.484 360.977 758.143 359.621 758.143 358.109Z" fill="#C4C4C4"/>
<path d="M787.812 354.863C787.382 353.959 786.76 353.262 785.945 352.773C785.129 352.269 784.181 352.017 783.099 352.017C782.017 352.017 781.039 352.269 780.164 352.773C779.304 353.262 778.623 353.973 778.119 354.907C777.63 355.826 777.385 356.893 777.385 358.109C777.385 359.324 777.63 360.391 778.119 361.31C778.623 362.229 779.304 362.941 780.164 363.445C781.039 363.934 782.017 364.178 783.099 364.178C784.611 364.178 785.856 363.726 786.834 362.822C787.812 361.918 788.383 360.695 788.546 359.154H782.365V357.508H790.703V359.065C790.584 360.339 790.184 361.51 789.502 362.578C788.82 363.63 787.923 364.467 786.812 365.09C785.7 365.698 784.463 366.001 783.099 366.001C781.661 366.001 780.349 365.668 779.164 365.001C777.978 364.319 777.037 363.378 776.34 362.177C775.658 360.977 775.317 359.621 775.317 358.109C775.317 356.597 775.658 355.241 776.34 354.04C777.037 352.825 777.978 351.884 779.164 351.217C780.349 350.535 781.661 350.194 783.099 350.194C784.744 350.194 786.197 350.601 787.457 351.417C788.731 352.232 789.658 353.381 790.236 354.863H787.812Z" fill="#C4C4C4"/>
<path d="M802.916 350.372V352.017H798.691V365.868H796.668V352.017H792.422V350.372H802.916Z" fill="#C4C4C4"/>
<path d="M814.566 362.422H807.807L806.562 365.868H804.428L810.03 350.461H812.365L817.945 365.868H815.811L814.566 362.422ZM813.988 360.777L811.187 352.951L808.385 360.777H813.988Z" fill="#C4C4C4"/>
<path d="M832.126 354.863C831.696 353.959 831.074 353.262 830.259 352.773C829.443 352.269 828.495 352.017 827.413 352.017C826.331 352.017 825.353 352.269 824.478 352.773C823.618 353.262 822.937 353.973 822.433 354.907C821.943 355.826 821.699 356.893 821.699 358.109C821.699 359.324 821.943 360.391 822.433 361.31C822.937 362.229 823.618 362.941 824.478 363.445C825.353 363.934 826.331 364.178 827.413 364.178C828.925 364.178 830.17 363.726 831.148 362.822C832.126 361.918 832.697 360.695 832.86 359.154H826.679V357.508H835.016V359.065C834.898 360.339 834.498 361.51 833.816 362.578C833.134 363.63 832.237 364.467 831.126 365.09C830.014 365.698 828.776 366.001 827.413 366.001C825.975 366.001 824.663 365.668 823.478 365.001C822.292 364.319 821.351 363.378 820.654 362.177C819.972 360.977 819.631 359.621 819.631 358.109C819.631 356.597 819.972 355.241 820.654 354.04C821.351 352.825 822.292 351.884 823.478 351.217C824.663 350.535 825.975 350.194 827.413 350.194C829.058 350.194 830.511 350.601 831.77 351.417C833.045 352.232 833.971 353.381 834.55 354.863H832.126Z" fill="#C4C4C4"/>
<path d="M849.431 354.863C849.001 353.959 848.378 353.262 847.563 352.773C846.748 352.269 845.799 352.017 844.717 352.017C843.635 352.017 842.657 352.269 841.782 352.773C840.923 353.262 840.241 353.973 839.737 354.907C839.248 355.826 839.003 356.893 839.003 358.109C839.003 359.324 839.248 360.391 839.737 361.31C840.241 362.229 840.923 362.941 841.782 363.445C842.657 363.934 843.635 364.178 844.717 364.178C846.229 364.178 847.474 363.726 848.452 362.822C849.431 361.918 850.001 360.695 850.164 359.154H843.983V357.508H852.321V359.065C852.202 360.339 851.802 361.51 851.12 362.578C850.438 363.63 849.542 364.467 848.43 365.09C847.318 365.698 846.081 366.001 844.717 366.001C843.279 366.001 841.968 365.668 840.782 365.001C839.596 364.319 838.655 363.378 837.958 362.177C837.277 360.977 836.936 359.621 836.936 358.109C836.936 356.597 837.277 355.241 837.958 354.04C838.655 352.825 839.596 351.884 840.782 351.217C841.968 350.535 843.279 350.194 844.717 350.194C846.362 350.194 847.815 350.601 849.075 351.417C850.349 352.232 851.276 353.381 851.854 354.863H849.431Z" fill="#C4C4C4"/>
<path d="M864.534 350.372V352.017H860.31V365.868H858.286V352.017H854.04V350.372H864.534Z" fill="#C4C4C4"/>
<path d="M876.184 362.422H869.425L868.18 365.868H866.046L871.649 350.461H873.983L879.564 365.868H877.429L876.184 362.422ZM875.606 360.777L872.805 352.951L870.003 360.777H875.606Z" fill="#C4C4C4"/>
<path d="M881.249 358.109C881.249 356.597 881.59 355.241 882.272 354.04C882.954 352.825 883.88 351.876 885.051 351.194C886.237 350.512 887.549 350.172 888.987 350.172C890.676 350.172 892.151 350.579 893.411 351.394C894.671 352.21 895.59 353.366 896.168 354.863H893.744C893.315 353.929 892.692 353.21 891.877 352.706C891.076 352.202 890.113 351.95 888.987 351.95C887.905 351.95 886.934 352.202 886.074 352.706C885.214 353.21 884.54 353.929 884.051 354.863C883.562 355.782 883.317 356.864 883.317 358.109C883.317 359.339 883.562 360.421 884.051 361.355C884.54 362.274 885.214 362.985 886.074 363.489C886.934 363.993 887.905 364.245 888.987 364.245C890.113 364.245 891.076 364 891.877 363.511C892.692 363.007 893.315 362.289 893.744 361.355H896.168C895.59 362.837 894.671 363.986 893.411 364.801C892.151 365.601 890.676 366.001 888.987 366.001C887.549 366.001 886.237 365.668 885.051 365.001C883.88 364.319 882.954 363.378 882.272 362.177C881.59 360.977 881.249 359.621 881.249 358.109Z" fill="#C4C4C4"/>
<path d="M908.717 350.372V352.017H904.493V365.868H902.47V352.017H898.223V350.372H908.717Z" fill="#C4C4C4"/>
<path d="M920.368 362.422H913.609L912.364 365.868H910.23L915.832 350.461H918.167L923.747 365.868H921.613L920.368 362.422ZM919.79 360.777L916.988 352.951L914.187 360.777H919.79Z" fill="#C4C4C4"/>
<path d="M925.433 358.109C925.433 356.597 925.774 355.241 926.456 354.04C927.138 352.825 928.064 351.876 929.235 351.194C930.421 350.512 931.732 350.172 933.17 350.172C934.86 350.172 936.335 350.579 937.595 351.394C938.854 352.21 939.773 353.366 940.351 354.863H937.928C937.498 353.929 936.876 353.21 936.06 352.706C935.26 352.202 934.297 351.95 933.17 351.95C932.088 351.95 931.117 352.202 930.258 352.706C929.398 353.21 928.724 353.929 928.234 354.863C927.745 355.782 927.501 356.864 927.501 358.109C927.501 359.339 927.745 360.421 928.234 361.355C928.724 362.274 929.398 362.985 930.258 363.489C931.117 363.993 932.088 364.245 933.17 364.245C934.297 364.245 935.26 364 936.06 363.511C936.876 363.007 937.498 362.289 937.928 361.355H940.351C939.773 362.837 938.854 363.986 937.595 364.801C936.335 365.601 934.86 366.001 933.17 366.001C931.732 366.001 930.421 365.668 929.235 365.001C928.064 364.319 927.138 363.378 926.456 362.177C925.774 360.977 925.433 359.621 925.433 358.109Z" fill="#C4C4C4"/>
<path d="M955.102 354.863C954.672 353.959 954.05 353.262 953.235 352.773C952.419 352.269 951.471 352.017 950.389 352.017C949.307 352.017 948.328 352.269 947.454 352.773C946.594 353.262 945.912 353.973 945.409 354.907C944.919 355.826 944.675 356.893 944.675 358.109C944.675 359.324 944.919 360.391 945.409 361.31C945.912 362.229 946.594 362.941 947.454 363.445C948.328 363.934 949.307 364.178 950.389 364.178C951.901 364.178 953.146 363.726 954.124 362.822C955.102 361.918 955.673 360.695 955.836 359.154H949.655V357.508H957.992V359.065C957.874 360.339 957.474 361.51 956.792 362.578C956.11 363.63 955.213 364.467 954.102 365.09C952.99 365.698 951.752 366.001 950.389 366.001C948.951 366.001 947.639 365.668 946.453 365.001C945.268 364.319 944.327 363.378 943.63 362.177C942.948 360.977 942.607 359.621 942.607 358.109C942.607 356.597 942.948 355.241 943.63 354.04C944.327 352.825 945.268 351.884 946.453 351.217C947.639 350.535 948.951 350.194 950.389 350.194C952.034 350.194 953.487 350.601 954.746 351.417C956.021 352.232 956.947 353.381 957.525 354.863H955.102Z" fill="#C4C4C4"/>
</g>
<path fill-rule="evenodd" clip-rule="evenodd" d="M906.443 153.784C900.09 163.734 897.489 176.631 899.687 193.115C901.339 205.506 897.818 222.743 889.332 238.534C880.824 254.362 867.179 269.013 848.301 275.935C832.616 281.687 817.673 289.02 806.63 297.114C796.416 304.6 790.006 312.39 788.8 319.841C788.615 320.99 787.657 321.909 786.494 321.875V321.875C785.331 321.842 784.405 320.869 784.56 319.716C785.818 310.317 793.586 301.452 804.139 293.716C815.607 285.311 830.942 277.814 846.85 271.98C864.516 265.503 877.463 251.719 885.621 236.539C893.8 221.322 897.019 204.977 895.511 193.672C893.216 176.456 895.881 162.498 902.893 151.517C909.57 141.062 920.04 133.536 933.351 128.43C934.437 128.013 935.646 128.584 936.038 129.679V129.679C936.431 130.774 935.859 131.978 934.773 132.396C922.099 137.273 912.495 144.308 906.443 153.784Z" fill="#E77F67"/>
<path fill-rule="evenodd" clip-rule="evenodd" d="M959.734 164.959C960.634 165.696 960.769 167.027 959.995 167.896C948.162 181.184 931.611 185.518 915.775 187.584C885.867 191.485 864.274 202.368 850.146 218.478C836.017 234.589 829.146 256.166 829.146 281.856V281.968C829.146 297.537 829.146 332.07 812.027 360.19C811.422 361.183 810.115 361.469 809.136 360.841V360.841C808.157 360.213 807.876 358.909 808.48 357.915C824.892 330.892 824.933 297.471 824.933 281.856C824.933 255.417 832.016 232.762 846.979 215.7C861.944 198.636 884.582 187.404 915.23 183.407C930.75 181.382 945.947 177.241 956.732 165.226C957.509 164.36 958.833 164.222 959.734 164.959V164.959Z" fill="#E77F67"/>
<path fill-rule="evenodd" clip-rule="evenodd" d="M887.003 236.308L861.728 204.714L865.017 202.082L890.292 233.676L887.003 236.308Z" fill="#E77F67"/>
<path fill-rule="evenodd" clip-rule="evenodd" d="M894.294 215.137L879.55 194.075L883.001 191.659L897.745 212.722L894.294 215.137Z" fill="#E77F67"/>
<path fill-rule="evenodd" clip-rule="evenodd" d="M913.831 187.263L895.928 175.679L898.217 172.142L916.12 183.727L913.831 187.263Z" fill="#E77F67"/>
<path fill-rule="evenodd" clip-rule="evenodd" d="M826.558 296.87L814.973 290.551L816.99 286.853L828.575 293.172L826.558 296.87Z" fill="#E77F67"/>
<path fill-rule="evenodd" clip-rule="evenodd" d="M927.413 184.028L898.979 162.966L901.486 159.581L929.92 180.643L927.413 184.028Z" fill="#E77F67"/>
<path fill-rule="evenodd" clip-rule="evenodd" d="M826.457 309.449L804.342 295.758L806.559 292.176L828.093 305.552L826.457 309.449Z" fill="#E77F67"/>
<path fill-rule="evenodd" clip-rule="evenodd" d="M822.981 326.058L796.653 301.836L799.505 298.736L825.833 322.958L822.981 326.058Z" fill="#E77F67"/>
<path fill-rule="evenodd" clip-rule="evenodd" d="M816.519 342.764L789.138 312.223L792.275 309.411L819.656 339.952L816.519 342.764Z" fill="#E77F67"/>
<path fill-rule="evenodd" clip-rule="evenodd" d="M940.994 179.729L906.241 150.242L908.967 147.03L943.72 176.517L940.994 179.729Z" fill="#E77F67"/>
<path fill-rule="evenodd" clip-rule="evenodd" d="M951.375 172.217L918.729 138.517L921.754 135.586L954.401 169.286L951.375 172.217Z" fill="#E77F67"/>
<path fill-rule="evenodd" clip-rule="evenodd" d="M879.838 249.169L848.245 219.682L851.119 216.602L882.713 246.09L879.838 249.169Z" fill="#E77F67"/>
<path fill-rule="evenodd" clip-rule="evenodd" d="M871.57 260.359L837.87 234.558L840.431 231.213L874.131 257.015L871.57 260.359Z" fill="#E77F67"/>
<path fill-rule="evenodd" clip-rule="evenodd" d="M860.201 269.456L829.66 251.553L831.791 247.918L862.331 265.822L860.201 269.456Z" fill="#E77F67"/>
<path fill-rule="evenodd" clip-rule="evenodd" d="M843.475 277.948L826.625 269.523L828.508 265.755L845.358 274.18L843.475 277.948Z" fill="#E77F67"/>
<path fill-rule="evenodd" clip-rule="evenodd" d="M644.088 250.46C644.114 249.748 644.127 249.032 644.127 248.314C644.127 223.215 627.972 201.89 605.494 194.169L586.892 207.934L627.405 238.056L644.088 250.46Z" fill="#F19066"/>
<path d="M586.892 305.549C593.404 305.549 599.662 304.461 605.494 302.458L612.231 282.655H561.852H541.1C551.542 296.556 568.167 305.549 586.892 305.549Z" fill="#F19066"/>
<path d="M644.088 250.46L627.405 238.056L612.231 282.655L605.494 302.458C627.329 294.958 643.197 274.622 644.088 250.46Z" fill="#EE7947"/>
<path d="M529.657 248.314C529.657 261.198 533.915 273.089 541.1 282.655H561.852L546.418 237.799L539.163 216.715C533.156 225.77 529.657 236.633 529.657 248.314Z" fill="#E2664A"/>
<path fill-rule="evenodd" clip-rule="evenodd" d="M546.418 237.799L586.892 207.934L605.494 194.169C599.662 192.166 593.404 191.079 586.892 191.079C566.963 191.079 549.412 201.265 539.163 216.715L546.418 237.799Z" fill="#EE7947"/>
<defs>
<filter id="filter0_d" x="358.435" y="295.564" width="25.4688" height="48.0193" filterUnits="userSpaceOnUse" color-interpolation-filters="sRGB">
<feFlood flood-opacity="0" result="BackgroundImageFix"/>
<feColorMatrix in="SourceAlpha" type="matrix" values="0 0 0 0 0 0 0 0 0 0 0 0 0 0 0 0 0 0 127 0" result="hardAlpha"/>
<feOffset dy="4"/>
<feGaussianBlur stdDeviation="2"/>
<feColorMatrix type="matrix" values="0 0 0 0 0 0 0 0 0 0 0 0 0 0 0 0 0 0 0.25 0"/>
<feBlend mode="normal" in2="BackgroundImageFix" result="effect1_dropShadow"/>
<feBlend mode="normal" in="SourceGraphic" in2="effect1_dropShadow" result="shape"/>
</filter>
<filter id="filter1_d" x="394.325" y="295.993" width="25.4688" height="48.0193" filterUnits="userSpaceOnUse" color-interpolation-filters="sRGB">
<feFlood flood-opacity="0" result="BackgroundImageFix"/>
<feColorMatrix in="SourceAlpha" type="matrix" values="0 0 0 0 0 0 0 0 0 0 0 0 0 0 0 0 0 0 127 0" result="hardAlpha"/>
<feOffset dy="4"/>
<feGaussianBlur stdDeviation="2"/>
<feColorMatrix type="matrix" values="0 0 0 0 0 0 0 0 0 0 0 0 0 0 0 0 0 0 0.25 0"/>
<feBlend mode="normal" in2="BackgroundImageFix" result="effect1_dropShadow"/>
<feBlend mode="normal" in="SourceGraphic" in2="effect1_dropShadow" result="shape"/>
</filter>
<filter id="filter2_f" x="737.893" y="106.502" width="248.59" height="267.499" filterUnits="userSpaceOnUse" color-interpolation-filters="sRGB">
<feFlood flood-opacity="0" result="BackgroundImageFix"/>
<feBlend mode="normal" in="SourceGraphic" in2="BackgroundImageFix" result="shape"/>
<feGaussianBlur stdDeviation="4" result="effect1_foregroundBlur"/>
</filter>
<linearGradient id="paint0_linear" x1="390.567" y1="273.331" x2="390.567" y2="313.668" gradientUnits="userSpaceOnUse">
<stop stop-color="#E8AD54"/>
<stop offset="0.75" stop-color="#EDBB81"/>
</linearGradient>
<linearGradient id="paint1_linear" x1="395.149" y1="285.749" x2="391.435" y2="300.114" gradientUnits="userSpaceOnUse">
<stop offset="0.307292" stop-color="#EDBB81"/>
<stop offset="1" stop-color="#CE9C6E"/>
</linearGradient>
</defs>
</svg>
